%TF.GenerationSoftware,KiCad,Pcbnew,10.0.0*%
%TF.CreationDate,2026-04-20T00:20:58+00:00*%
%TF.ProjectId,MsCp-1A3,4d734370-2d31-4413-932e-6b696361645f,rev?*%
%TF.SameCoordinates,Original*%
%TF.FileFunction,Soldermask,Top*%
%TF.FilePolarity,Negative*%
%FSLAX46Y46*%
G04 Gerber Fmt 4.6, Leading zero omitted, Abs format (unit mm)*
G04 Created by KiCad (PCBNEW 10.0.0) date 2026-04-20 00:20:58*
%MOMM*%
%LPD*%
G01*
G04 APERTURE LIST*
G04 Aperture macros list*
%AMRoundRect*
0 Rectangle with rounded corners*
0 $1 Rounding radius*
0 $2 $3 $4 $5 $6 $7 $8 $9 X,Y pos of 4 corners*
0 Add a 4 corners polygon primitive as box body*
4,1,4,$2,$3,$4,$5,$6,$7,$8,$9,$2,$3,0*
0 Add four circle primitives for the rounded corners*
1,1,$1+$1,$2,$3*
1,1,$1+$1,$4,$5*
1,1,$1+$1,$6,$7*
1,1,$1+$1,$8,$9*
0 Add four rect primitives between the rounded corners*
20,1,$1+$1,$2,$3,$4,$5,0*
20,1,$1+$1,$4,$5,$6,$7,0*
20,1,$1+$1,$6,$7,$8,$9,0*
20,1,$1+$1,$8,$9,$2,$3,0*%
G04 Aperture macros list end*
%ADD10RoundRect,0.225000X-0.250000X0.225000X-0.250000X-0.225000X0.250000X-0.225000X0.250000X0.225000X0*%
%ADD11RoundRect,0.050000X-0.387500X-0.050000X0.387500X-0.050000X0.387500X0.050000X-0.387500X0.050000X0*%
%ADD12RoundRect,0.050000X-0.050000X-0.387500X0.050000X-0.387500X0.050000X0.387500X-0.050000X0.387500X0*%
%ADD13R,3.200000X3.200000*%
%ADD14RoundRect,0.160000X-0.160000X0.197500X-0.160000X-0.197500X0.160000X-0.197500X0.160000X0.197500X0*%
%ADD15RoundRect,0.155000X0.155000X-0.212500X0.155000X0.212500X-0.155000X0.212500X-0.155000X-0.212500X0*%
%ADD16RoundRect,0.155000X-0.212500X-0.155000X0.212500X-0.155000X0.212500X0.155000X-0.212500X0.155000X0*%
%ADD17RoundRect,0.155000X0.212500X0.155000X-0.212500X0.155000X-0.212500X-0.155000X0.212500X-0.155000X0*%
%ADD18RoundRect,0.155000X-0.155000X0.212500X-0.155000X-0.212500X0.155000X-0.212500X0.155000X0.212500X0*%
%ADD19RoundRect,0.135000X0.185000X-0.135000X0.185000X0.135000X-0.185000X0.135000X-0.185000X-0.135000X0*%
%ADD20RoundRect,0.250000X0.275000X0.750000X-0.275000X0.750000X-0.275000X-0.750000X0.275000X-0.750000X0*%
%ADD21R,1.700000X1.700000*%
%ADD22C,1.700000*%
%ADD23RoundRect,0.162500X-0.650000X-0.162500X0.650000X-0.162500X0.650000X0.162500X-0.650000X0.162500X0*%
%ADD24C,0.650000*%
%ADD25RoundRect,0.150000X0.150000X0.575000X-0.150000X0.575000X-0.150000X-0.575000X0.150000X-0.575000X0*%
%ADD26RoundRect,0.075000X0.075000X0.650000X-0.075000X0.650000X-0.075000X-0.650000X0.075000X-0.650000X0*%
%ADD27O,1.000000X2.100000*%
%ADD28O,1.000000X1.600000*%
%ADD29RoundRect,0.135000X-0.185000X0.135000X-0.185000X-0.135000X0.185000X-0.135000X0.185000X0.135000X0*%
%ADD30RoundRect,0.135000X0.135000X0.185000X-0.135000X0.185000X-0.135000X-0.185000X0.135000X-0.185000X0*%
%ADD31RoundRect,0.375000X-0.375000X0.625000X-0.375000X-0.625000X0.375000X-0.625000X0.375000X0.625000X0*%
%ADD32RoundRect,0.500000X-1.400000X0.500000X-1.400000X-0.500000X1.400000X-0.500000X1.400000X0.500000X0*%
%ADD33RoundRect,0.155000X-0.040659X-0.259862X0.259862X0.040659X0.040659X0.259862X-0.259862X-0.040659X0*%
%ADD34RoundRect,0.250000X-0.450000X-0.350000X0.450000X-0.350000X0.450000X0.350000X-0.450000X0.350000X0*%
G04 APERTURE END LIST*
D10*
%TO.C,C2*%
X143050000Y-77375000D03*
X143050000Y-78925000D03*
%TD*%
%TO.C,C1*%
X151950000Y-76325000D03*
X151950000Y-77875000D03*
%TD*%
D11*
%TO.C,U1*%
X145952500Y-98100000D03*
X145952500Y-98500000D03*
X145952500Y-98900000D03*
X145952500Y-99300000D03*
X145952500Y-99700000D03*
X145952500Y-100100000D03*
X145952500Y-100500000D03*
X145952500Y-100900000D03*
X145952500Y-101300000D03*
X145952500Y-101700000D03*
X145952500Y-102100000D03*
X145952500Y-102500000D03*
X145952500Y-102900000D03*
X145952500Y-103300000D03*
D12*
X146790000Y-104137500D03*
X147190000Y-104137500D03*
X147590000Y-104137500D03*
X147990000Y-104137500D03*
X148390000Y-104137500D03*
X148790000Y-104137500D03*
X149190000Y-104137500D03*
X149590000Y-104137500D03*
X149990000Y-104137500D03*
X150390000Y-104137500D03*
X150790000Y-104137500D03*
X151190000Y-104137500D03*
X151590000Y-104137500D03*
X151990000Y-104137500D03*
D11*
X152827500Y-103300000D03*
X152827500Y-102900000D03*
X152827500Y-102500000D03*
X152827500Y-102100000D03*
X152827500Y-101700000D03*
X152827500Y-101300000D03*
X152827500Y-100900000D03*
X152827500Y-100500000D03*
X152827500Y-100100000D03*
X152827500Y-99700000D03*
X152827500Y-99300000D03*
X152827500Y-98900000D03*
X152827500Y-98500000D03*
X152827500Y-98100000D03*
D12*
X151990000Y-97262500D03*
X151590000Y-97262500D03*
X151190000Y-97262500D03*
X150790000Y-97262500D03*
X150390000Y-97262500D03*
X149990000Y-97262500D03*
X149590000Y-97262500D03*
X149190000Y-97262500D03*
X148790000Y-97262500D03*
X148390000Y-97262500D03*
X147990000Y-97262500D03*
X147590000Y-97262500D03*
X147190000Y-97262500D03*
X146790000Y-97262500D03*
D13*
X149390000Y-100700000D03*
%TD*%
D14*
%TO.C,R51*%
X143500000Y-71002500D03*
X143500000Y-72197500D03*
%TD*%
D15*
%TO.C,C15*%
X155500000Y-93567500D03*
X155500000Y-92432500D03*
%TD*%
D16*
%TO.C,C12*%
X154562729Y-101809614D03*
X155697729Y-101809614D03*
%TD*%
D17*
%TO.C,C7*%
X144567500Y-101600000D03*
X143432500Y-101600000D03*
%TD*%
D18*
%TO.C,C14*%
X150500000Y-106432500D03*
X150500000Y-107567500D03*
%TD*%
D16*
%TO.C,C11*%
X153932500Y-95000000D03*
X155067500Y-95000000D03*
%TD*%
D19*
%TO.C,R5*%
X149400000Y-107010000D03*
X149400000Y-105990000D03*
%TD*%
D20*
%TO.C,SW1*%
X151225000Y-113500000D03*
X146775000Y-113500000D03*
%TD*%
D15*
%TO.C,C6*%
X143000000Y-81567500D03*
X143000000Y-80432500D03*
%TD*%
D18*
%TO.C,C16*%
X151500000Y-106432500D03*
X151500000Y-107567500D03*
%TD*%
D17*
%TO.C,C3*%
X146467500Y-109500000D03*
X145332500Y-109500000D03*
%TD*%
D21*
%TO.C,J2*%
X140500000Y-68140000D03*
D22*
X140500000Y-70680000D03*
X140500000Y-73220000D03*
X140500000Y-75760000D03*
X140500000Y-78300000D03*
X140500000Y-80840000D03*
X140500000Y-83380000D03*
X140500000Y-85920000D03*
X140500000Y-88460000D03*
X140500000Y-91000000D03*
X140500000Y-93540000D03*
X140500000Y-96080000D03*
X140500000Y-98620000D03*
X140500000Y-101160000D03*
X140500000Y-103700000D03*
X140500000Y-106240000D03*
X140500000Y-108780000D03*
X140500000Y-111320000D03*
X140500000Y-113860000D03*
X140500000Y-116400000D03*
%TD*%
D23*
%TO.C,U3*%
X145412500Y-85595000D03*
X145412500Y-86865000D03*
X145412500Y-88135000D03*
X145412500Y-89405000D03*
X152587500Y-89405000D03*
X152587500Y-88135000D03*
X152587500Y-86865000D03*
X152587500Y-85595000D03*
%TD*%
D24*
%TO.C,J1*%
X152500000Y-71650000D03*
X146720000Y-71650000D03*
D25*
X152860000Y-73095000D03*
X152060000Y-73095000D03*
D26*
X150860000Y-73095000D03*
X149860000Y-73095000D03*
X149360000Y-73095000D03*
X148360000Y-73095000D03*
D25*
X147160000Y-73095000D03*
X146360000Y-73095000D03*
X146360000Y-73095000D03*
X147160000Y-73095000D03*
D26*
X147860000Y-73095000D03*
X148860000Y-73095000D03*
X150360000Y-73095000D03*
X151360000Y-73095000D03*
D25*
X152060000Y-73095000D03*
X152860000Y-73095000D03*
D27*
X153930000Y-72180000D03*
D28*
X153930000Y-68000000D03*
D27*
X145290000Y-72180000D03*
D28*
X145290000Y-68000000D03*
%TD*%
D15*
%TO.C,C9*%
X144000000Y-98067500D03*
X144000000Y-96932500D03*
%TD*%
D29*
%TO.C,R2*%
X149996642Y-93490000D03*
X149996642Y-94510000D03*
%TD*%
D21*
%TO.C,J4*%
X146850000Y-117160000D03*
D22*
X149390000Y-117160000D03*
X151930000Y-117160000D03*
%TD*%
D30*
%TO.C,R6*%
X145510000Y-93500000D03*
X144490000Y-93500000D03*
%TD*%
D29*
%TO.C,R1*%
X151176642Y-93490000D03*
X151176642Y-94510000D03*
%TD*%
D19*
%TO.C,R3*%
X143500000Y-70000000D03*
X143500000Y-68980000D03*
%TD*%
D17*
%TO.C,C22*%
X150467500Y-109000000D03*
X149332500Y-109000000D03*
%TD*%
D31*
%TO.C,U2*%
X149800000Y-76850000D03*
X147500000Y-76850000D03*
D32*
X147500000Y-83150000D03*
D31*
X145200000Y-76850000D03*
%TD*%
D15*
%TO.C,C17*%
X154250000Y-93067500D03*
X154250000Y-91932500D03*
%TD*%
D33*
%TO.C,C13*%
X150000000Y-92000000D03*
X150802566Y-91197434D03*
%TD*%
D16*
%TO.C,C8*%
X153942498Y-97131042D03*
X155077498Y-97131042D03*
%TD*%
D19*
%TO.C,R7*%
X145250000Y-96010000D03*
X145250000Y-94990000D03*
%TD*%
D15*
%TO.C,C5*%
X151800000Y-83767500D03*
X151800000Y-82632500D03*
%TD*%
D34*
%TO.C,Crystal_GND24*%
X145300000Y-107850000D03*
X147500000Y-107850000D03*
X147500000Y-106150000D03*
X145300000Y-106150000D03*
%TD*%
D15*
%TO.C,C10*%
X153000000Y-93567500D03*
X153000000Y-92432500D03*
%TD*%
D21*
%TO.C,VOUT 5V v*%
X158280000Y-68140000D03*
D22*
X158280000Y-70680000D03*
X158280000Y-73220000D03*
X158280000Y-75760000D03*
X158280000Y-78300000D03*
X158280000Y-80840000D03*
X158280000Y-83380000D03*
X158280000Y-85920000D03*
X158280000Y-88460000D03*
X158280000Y-91000000D03*
X158280000Y-93540000D03*
X158280000Y-96080000D03*
X158280000Y-98620000D03*
X158280000Y-101160000D03*
X158280000Y-103700000D03*
X158280000Y-106240000D03*
X158280000Y-108780000D03*
X158280000Y-111320000D03*
X158280000Y-113860000D03*
X158280000Y-116400000D03*
%TD*%
M02*
