M48
; DRILL file KiCad 10.0.0 date 2026-04-20T00:21:02
; FORMAT={-:-/ absolute / metric / decimal}
; #@! TF.CreationDate,2026-04-20T00:21:02+00:00
; #@! TF.GenerationSoftware,Kicad,Pcbnew,10.0.0
; #@! TF.FileFunction,Plated,1,2,PTH
FMAT,2
METRIC
; #@! TA.AperFunction,Plated,PTH,ViaDrill
T1C0.300
; #@! TA.AperFunction,Plated,PTH,ViaDrill
T2C0.400
; #@! TA.AperFunction,Plated,PTH,ViaDrill
T3C0.500
; #@! TA.AperFunction,Plated,PTH,ComponentDrill
T4C0.600
; #@! TA.AperFunction,Plated,PTH,ComponentDrill
T5C1.000
%
G90
G05
T1
X142.5Y-87.0
X142.5Y-87.75
X142.5Y-105.5
X143.0Y-104.0
X143.232Y-100.225
X143.433Y-101.6
X143.5Y-108.0
X144.0Y-104.0
X144.425Y-99.014
X144.75Y-100.0
X145.093Y-98.268
X145.412Y-89.405
X145.5Y-91.5
X145.934Y-96.566
X146.19Y-94.723
X146.36Y-73.095
X146.775Y-113.5
X146.797Y-98.681
X146.809Y-102.629
X146.877Y-101.013
X146.982Y-99.482
X147.0Y-103.25
X147.008Y-100.258
X147.16Y-73.095
X147.365Y-102.151
X147.5Y-100.75
X148.0Y-110.5
X149.0Y-69.0
X149.0Y-91.5
X149.428Y-102.8
X149.79Y-96.0
X150.694Y-103.2
X150.75Y-88.75
X150.75Y-110.75
X150.803Y-91.197
X151.546Y-103.182
X152.0Y-100.5
X152.06Y-73.095
X152.075Y-92.825
X152.25Y-94.25
X152.5Y-96.0
X153.0Y-92.5
X153.5Y-74.75
X153.5Y-81.8
X154.5Y-107.5
X154.563Y-101.81
X154.9Y-98.74
X155.7Y-98.74
X155.707Y-99.63
X155.75Y-90.0
X156.0Y-79.25
X156.0Y-82.0
X157.0Y-101.5
T2
X147.5Y-83.15
T3
X150.25Y-79.75
T5
X140.5Y-68.14
X140.5Y-70.68
X140.5Y-73.22
X140.5Y-75.76
X140.5Y-78.3
X140.5Y-80.84
X140.5Y-83.38
X140.5Y-85.92
X140.5Y-88.46
X140.5Y-91.0
X140.5Y-93.54
X140.5Y-96.08
X140.5Y-98.62
X140.5Y-101.16
X140.5Y-103.7
X140.5Y-106.24
X140.5Y-108.78
X140.5Y-111.32
X140.5Y-113.86
X140.5Y-116.4
X146.85Y-117.16
X149.39Y-117.16
X151.93Y-117.16
X158.28Y-68.14
X158.28Y-70.68
X158.28Y-73.22
X158.28Y-75.76
X158.28Y-78.3
X158.28Y-80.84
X158.28Y-83.38
X158.28Y-85.92
X158.28Y-88.46
X158.28Y-91.0
X158.28Y-93.54
X158.28Y-96.08
X158.28Y-98.62
X158.28Y-101.16
X158.28Y-103.7
X158.28Y-106.24
X158.28Y-108.78
X158.28Y-111.32
X158.28Y-113.86
X158.28Y-116.4
T4
G00X145.29Y-68.3
M15
G01X145.29Y-67.7
M16
G05
G00X145.29Y-72.73
M15
G01X145.29Y-71.63
M16
G05
G00X153.93Y-68.3
M15
G01X153.93Y-67.7
M16
G05
G00X153.93Y-72.73
M15
G01X153.93Y-71.63
M16
G05
M30
