%TF.GenerationSoftware,KiCad,Pcbnew,10.0.0*%
%TF.CreationDate,2026-04-20T00:20:58+00:00*%
%TF.ProjectId,MsCp-1A3,4d734370-2d31-4413-932e-6b696361645f,rev?*%
%TF.SameCoordinates,Original*%
%TF.FileFunction,Legend,Bot*%
%TF.FilePolarity,Positive*%
%FSLAX46Y46*%
G04 Gerber Fmt 4.6, Leading zero omitted, Abs format (unit mm)*
G04 Created by KiCad (PCBNEW 10.0.0) date 2026-04-20 00:20:58*
%MOMM*%
%LPD*%
G01*
G04 APERTURE LIST*
%ADD10C,0.037500*%
%ADD11C,0.125000*%
%ADD12C,0.150000*%
G04 APERTURE END LIST*
D10*
X159636835Y-105957141D02*
X159336835Y-105957141D01*
X159336835Y-105957141D02*
X159336835Y-106128570D01*
X159336835Y-106128570D02*
X159636835Y-106128570D01*
X159636835Y-106314284D02*
X159622550Y-106285713D01*
X159622550Y-106285713D02*
X159608264Y-106271427D01*
X159608264Y-106271427D02*
X159579692Y-106257141D01*
X159579692Y-106257141D02*
X159493978Y-106257141D01*
X159493978Y-106257141D02*
X159465407Y-106271427D01*
X159465407Y-106271427D02*
X159451121Y-106285713D01*
X159451121Y-106285713D02*
X159436835Y-106314284D01*
X159436835Y-106314284D02*
X159436835Y-106357141D01*
X159436835Y-106357141D02*
X159451121Y-106385713D01*
X159451121Y-106385713D02*
X159465407Y-106399999D01*
X159465407Y-106399999D02*
X159493978Y-106414284D01*
X159493978Y-106414284D02*
X159579692Y-106414284D01*
X159579692Y-106414284D02*
X159608264Y-106399999D01*
X159608264Y-106399999D02*
X159622550Y-106385713D01*
X159622550Y-106385713D02*
X159636835Y-106357141D01*
X159636835Y-106357141D02*
X159636835Y-106314284D01*
X159636835Y-106657142D02*
X159436835Y-106657142D01*
X159436835Y-106657142D02*
X159436835Y-106614285D01*
X159436835Y-106614285D02*
X159451121Y-106585713D01*
X159451121Y-106585713D02*
X159479692Y-106571428D01*
X159479692Y-106571428D02*
X159593978Y-106557142D01*
X159593978Y-106557142D02*
X159622550Y-106542856D01*
X159622550Y-106542856D02*
X159636835Y-106514285D01*
X159536835Y-106799999D02*
X159536835Y-106885713D01*
X159436835Y-106799999D02*
X159636835Y-106799999D01*
X159636835Y-106942856D02*
X159622550Y-106914285D01*
X159622550Y-106914285D02*
X159608264Y-106899999D01*
X159608264Y-106899999D02*
X159579692Y-106885713D01*
X159579692Y-106885713D02*
X159493978Y-106885713D01*
X159493978Y-106885713D02*
X159465407Y-106899999D01*
X159465407Y-106899999D02*
X159451121Y-106914285D01*
X159451121Y-106914285D02*
X159436835Y-106942856D01*
X159436835Y-106942856D02*
X159436835Y-106985713D01*
X159436835Y-106985713D02*
X159451121Y-107014285D01*
X159451121Y-107014285D02*
X159465407Y-107028571D01*
X159465407Y-107028571D02*
X159493978Y-107042856D01*
X159493978Y-107042856D02*
X159579692Y-107042856D01*
X159579692Y-107042856D02*
X159608264Y-107028571D01*
X159608264Y-107028571D02*
X159622550Y-107014285D01*
X159622550Y-107014285D02*
X159636835Y-106985713D01*
X159636835Y-106985713D02*
X159636835Y-106942856D01*
X159322550Y-107314285D02*
X159336835Y-107300000D01*
X159336835Y-107300000D02*
X159351121Y-107271428D01*
X159351121Y-107271428D02*
X159351121Y-107214285D01*
X159351121Y-107214285D02*
X159365407Y-107185714D01*
X159365407Y-107185714D02*
X159379692Y-107171428D01*
X159379692Y-107171428D02*
X159408264Y-107157142D01*
X159408264Y-107157142D02*
X159579692Y-107157142D01*
X159579692Y-107157142D02*
X159608264Y-107171428D01*
X159608264Y-107171428D02*
X159622550Y-107185714D01*
X159622550Y-107185714D02*
X159636835Y-107214285D01*
X159636835Y-107214285D02*
X159636835Y-107257142D01*
X159636835Y-107257142D02*
X159622550Y-107285714D01*
X159622550Y-107285714D02*
X159608264Y-107300000D01*
X159608264Y-107300000D02*
X159579692Y-107314285D01*
X159579692Y-107314285D02*
X159493978Y-107314285D01*
X159493978Y-107314285D02*
X159465407Y-107300000D01*
X159465407Y-107300000D02*
X159451121Y-107285714D01*
X159451121Y-107285714D02*
X159436835Y-107257142D01*
X159436835Y-107257142D02*
X159436835Y-107200000D01*
X159436835Y-107200000D02*
X159451121Y-107171428D01*
X159451121Y-107171428D02*
X159465407Y-107157142D01*
X159436835Y-107442857D02*
X159636835Y-107442857D01*
X159636835Y-107442857D02*
X159436835Y-107585714D01*
X159436835Y-107585714D02*
X159636835Y-107585714D01*
X159622550Y-108085714D02*
X159636835Y-108057142D01*
X159636835Y-108057142D02*
X159636835Y-107999999D01*
X159636835Y-107999999D02*
X159622550Y-107971428D01*
X159622550Y-107971428D02*
X159608264Y-107957142D01*
X159608264Y-107957142D02*
X159579692Y-107942856D01*
X159579692Y-107942856D02*
X159493978Y-107942856D01*
X159493978Y-107942856D02*
X159465407Y-107957142D01*
X159465407Y-107957142D02*
X159451121Y-107971428D01*
X159451121Y-107971428D02*
X159436835Y-107999999D01*
X159436835Y-107999999D02*
X159436835Y-108057142D01*
X159436835Y-108057142D02*
X159451121Y-108085714D01*
X159622550Y-108328571D02*
X159636835Y-108299999D01*
X159636835Y-108299999D02*
X159636835Y-108242857D01*
X159636835Y-108242857D02*
X159622550Y-108214285D01*
X159622550Y-108214285D02*
X159593978Y-108199999D01*
X159593978Y-108199999D02*
X159479692Y-108199999D01*
X159479692Y-108199999D02*
X159451121Y-108214285D01*
X159451121Y-108214285D02*
X159436835Y-108242857D01*
X159436835Y-108242857D02*
X159436835Y-108299999D01*
X159436835Y-108299999D02*
X159451121Y-108328571D01*
X159451121Y-108328571D02*
X159479692Y-108342857D01*
X159479692Y-108342857D02*
X159508264Y-108342857D01*
X159508264Y-108342857D02*
X159536835Y-108199999D01*
X159322550Y-108614285D02*
X159336835Y-108600000D01*
X159336835Y-108600000D02*
X159351121Y-108571428D01*
X159351121Y-108571428D02*
X159351121Y-108514285D01*
X159351121Y-108514285D02*
X159365407Y-108485714D01*
X159365407Y-108485714D02*
X159379692Y-108471428D01*
X159379692Y-108471428D02*
X159408264Y-108457142D01*
X159408264Y-108457142D02*
X159579692Y-108457142D01*
X159579692Y-108457142D02*
X159608264Y-108471428D01*
X159608264Y-108471428D02*
X159622550Y-108485714D01*
X159622550Y-108485714D02*
X159636835Y-108514285D01*
X159636835Y-108514285D02*
X159636835Y-108557142D01*
X159636835Y-108557142D02*
X159622550Y-108585714D01*
X159622550Y-108585714D02*
X159608264Y-108600000D01*
X159608264Y-108600000D02*
X159579692Y-108614285D01*
X159579692Y-108614285D02*
X159493978Y-108614285D01*
X159493978Y-108614285D02*
X159465407Y-108600000D01*
X159465407Y-108600000D02*
X159451121Y-108585714D01*
X159451121Y-108585714D02*
X159436835Y-108557142D01*
X159436835Y-108557142D02*
X159436835Y-108500000D01*
X159436835Y-108500000D02*
X159451121Y-108471428D01*
X159451121Y-108471428D02*
X159465407Y-108457142D01*
X159551121Y-108800000D02*
X159636835Y-108728571D01*
X159636835Y-108857143D02*
X159436835Y-108857143D01*
X159436835Y-108857143D02*
X159436835Y-108771429D01*
X159436835Y-108771429D02*
X159451121Y-108742857D01*
X159451121Y-108742857D02*
X159479692Y-108728571D01*
X159479692Y-108728571D02*
X159508264Y-108728571D01*
X159508264Y-108728571D02*
X159536835Y-108742857D01*
X159536835Y-108742857D02*
X159551121Y-108771429D01*
X159551121Y-108771429D02*
X159551121Y-108857143D01*
X159622550Y-109014286D02*
X159636835Y-109014286D01*
X159636835Y-109014286D02*
X159665407Y-109000000D01*
X159665407Y-109000000D02*
X159679692Y-108985714D01*
X159636835Y-109371428D02*
X159336835Y-109371428D01*
X159336835Y-109371428D02*
X159551121Y-109471428D01*
X159551121Y-109471428D02*
X159336835Y-109571428D01*
X159336835Y-109571428D02*
X159636835Y-109571428D01*
X159636835Y-109842857D02*
X159479692Y-109842857D01*
X159479692Y-109842857D02*
X159451121Y-109828571D01*
X159451121Y-109828571D02*
X159436835Y-109799999D01*
X159436835Y-109799999D02*
X159436835Y-109742857D01*
X159436835Y-109742857D02*
X159451121Y-109714285D01*
X159622550Y-109842857D02*
X159636835Y-109814285D01*
X159636835Y-109814285D02*
X159636835Y-109742857D01*
X159636835Y-109742857D02*
X159622550Y-109714285D01*
X159622550Y-109714285D02*
X159593978Y-109699999D01*
X159593978Y-109699999D02*
X159565407Y-109699999D01*
X159565407Y-109699999D02*
X159536835Y-109714285D01*
X159536835Y-109714285D02*
X159522550Y-109742857D01*
X159522550Y-109742857D02*
X159522550Y-109814285D01*
X159522550Y-109814285D02*
X159508264Y-109842857D01*
X159436835Y-109985714D02*
X159736835Y-109985714D01*
X159451121Y-109985714D02*
X159436835Y-110014286D01*
X159436835Y-110014286D02*
X159436835Y-110071428D01*
X159436835Y-110071428D02*
X159451121Y-110100000D01*
X159451121Y-110100000D02*
X159465407Y-110114286D01*
X159465407Y-110114286D02*
X159493978Y-110128571D01*
X159493978Y-110128571D02*
X159579692Y-110128571D01*
X159579692Y-110128571D02*
X159608264Y-110114286D01*
X159608264Y-110114286D02*
X159622550Y-110100000D01*
X159622550Y-110100000D02*
X159636835Y-110071428D01*
X159636835Y-110071428D02*
X159636835Y-110014286D01*
X159636835Y-110014286D02*
X159622550Y-109985714D01*
X159436835Y-110257143D02*
X159636835Y-110257143D01*
X159636835Y-110257143D02*
X159436835Y-110400000D01*
X159436835Y-110400000D02*
X159636835Y-110400000D01*
X159636835Y-110657143D02*
X159436835Y-110657143D01*
X159436835Y-110657143D02*
X159436835Y-110614286D01*
X159436835Y-110614286D02*
X159451121Y-110585714D01*
X159451121Y-110585714D02*
X159479692Y-110571429D01*
X159479692Y-110571429D02*
X159593978Y-110557143D01*
X159593978Y-110557143D02*
X159622550Y-110542857D01*
X159622550Y-110542857D02*
X159636835Y-110514286D01*
X159436835Y-110800000D02*
X159636835Y-110800000D01*
X159636835Y-110800000D02*
X159436835Y-110942857D01*
X159436835Y-110942857D02*
X159636835Y-110942857D01*
X159551121Y-111142857D02*
X159636835Y-111071428D01*
X159636835Y-111200000D02*
X159436835Y-111200000D01*
X159436835Y-111200000D02*
X159436835Y-111114286D01*
X159436835Y-111114286D02*
X159451121Y-111085714D01*
X159451121Y-111085714D02*
X159479692Y-111071428D01*
X159479692Y-111071428D02*
X159508264Y-111071428D01*
X159508264Y-111071428D02*
X159536835Y-111085714D01*
X159536835Y-111085714D02*
X159551121Y-111114286D01*
X159551121Y-111114286D02*
X159551121Y-111200000D01*
X159622550Y-111357143D02*
X159636835Y-111357143D01*
X159636835Y-111357143D02*
X159665407Y-111342857D01*
X159665407Y-111342857D02*
X159679692Y-111328571D01*
X159436835Y-111814285D02*
X159636835Y-111814285D01*
X159436835Y-111699999D02*
X159508264Y-111699999D01*
X159508264Y-111699999D02*
X159536835Y-111714285D01*
X159536835Y-111714285D02*
X159551121Y-111742857D01*
X159551121Y-111742857D02*
X159551121Y-111814285D01*
X159436835Y-111928571D02*
X159436835Y-112071428D01*
X159436835Y-112000000D02*
X159636835Y-112000000D01*
X159636835Y-112214285D02*
X159622550Y-112185714D01*
X159622550Y-112185714D02*
X159608264Y-112171428D01*
X159608264Y-112171428D02*
X159579692Y-112157142D01*
X159579692Y-112157142D02*
X159493978Y-112157142D01*
X159493978Y-112157142D02*
X159465407Y-112171428D01*
X159465407Y-112171428D02*
X159451121Y-112185714D01*
X159451121Y-112185714D02*
X159436835Y-112214285D01*
X159436835Y-112214285D02*
X159436835Y-112257142D01*
X159436835Y-112257142D02*
X159451121Y-112285714D01*
X159451121Y-112285714D02*
X159465407Y-112300000D01*
X159465407Y-112300000D02*
X159493978Y-112314285D01*
X159493978Y-112314285D02*
X159579692Y-112314285D01*
X159579692Y-112314285D02*
X159608264Y-112300000D01*
X159608264Y-112300000D02*
X159622550Y-112285714D01*
X159622550Y-112285714D02*
X159636835Y-112257142D01*
X159636835Y-112257142D02*
X159636835Y-112214285D01*
X159322550Y-112585714D02*
X159336835Y-112571429D01*
X159336835Y-112571429D02*
X159351121Y-112542857D01*
X159351121Y-112542857D02*
X159351121Y-112485714D01*
X159351121Y-112485714D02*
X159365407Y-112457143D01*
X159365407Y-112457143D02*
X159379692Y-112442857D01*
X159379692Y-112442857D02*
X159408264Y-112428571D01*
X159408264Y-112428571D02*
X159579692Y-112428571D01*
X159579692Y-112428571D02*
X159608264Y-112442857D01*
X159608264Y-112442857D02*
X159622550Y-112457143D01*
X159622550Y-112457143D02*
X159636835Y-112485714D01*
X159636835Y-112485714D02*
X159636835Y-112528571D01*
X159636835Y-112528571D02*
X159622550Y-112557143D01*
X159622550Y-112557143D02*
X159608264Y-112571429D01*
X159608264Y-112571429D02*
X159579692Y-112585714D01*
X159579692Y-112585714D02*
X159493978Y-112585714D01*
X159493978Y-112585714D02*
X159465407Y-112571429D01*
X159465407Y-112571429D02*
X159451121Y-112557143D01*
X159451121Y-112557143D02*
X159436835Y-112528571D01*
X159436835Y-112528571D02*
X159436835Y-112471429D01*
X159436835Y-112471429D02*
X159451121Y-112442857D01*
X159451121Y-112442857D02*
X159465407Y-112428571D01*
X159436835Y-112914286D02*
X159636835Y-112914286D01*
X159436835Y-112714286D02*
X159636835Y-112714286D01*
X159636835Y-112714286D02*
X159636835Y-112785715D01*
X159636835Y-112785715D02*
X159622550Y-112814286D01*
X159622550Y-112814286D02*
X159593978Y-112828572D01*
X159593978Y-112828572D02*
X159551121Y-112828572D01*
X159551121Y-112828572D02*
X159522550Y-112814286D01*
X159522550Y-112814286D02*
X159508264Y-112785715D01*
X159508264Y-112785715D02*
X159508264Y-112714286D01*
X159551121Y-113342857D02*
X159636835Y-113271428D01*
X159636835Y-113400000D02*
X159436835Y-113400000D01*
X159436835Y-113400000D02*
X159436835Y-113314286D01*
X159436835Y-113314286D02*
X159451121Y-113285714D01*
X159451121Y-113285714D02*
X159479692Y-113271428D01*
X159479692Y-113271428D02*
X159508264Y-113271428D01*
X159508264Y-113271428D02*
X159536835Y-113285714D01*
X159536835Y-113285714D02*
X159551121Y-113314286D01*
X159551121Y-113314286D02*
X159551121Y-113400000D01*
X159636835Y-113771428D02*
X159436835Y-113771428D01*
X159436835Y-113771428D02*
X159593978Y-113857142D01*
X159593978Y-113857142D02*
X159436835Y-113942857D01*
X159436835Y-113942857D02*
X159636835Y-113942857D01*
X159636835Y-114128571D02*
X159622550Y-114100000D01*
X159622550Y-114100000D02*
X159608264Y-114085714D01*
X159608264Y-114085714D02*
X159579692Y-114071428D01*
X159579692Y-114071428D02*
X159493978Y-114071428D01*
X159493978Y-114071428D02*
X159465407Y-114085714D01*
X159465407Y-114085714D02*
X159451121Y-114100000D01*
X159451121Y-114100000D02*
X159436835Y-114128571D01*
X159436835Y-114128571D02*
X159436835Y-114171428D01*
X159436835Y-114171428D02*
X159451121Y-114200000D01*
X159451121Y-114200000D02*
X159465407Y-114214286D01*
X159465407Y-114214286D02*
X159493978Y-114228571D01*
X159493978Y-114228571D02*
X159579692Y-114228571D01*
X159579692Y-114228571D02*
X159608264Y-114214286D01*
X159608264Y-114214286D02*
X159622550Y-114200000D01*
X159622550Y-114200000D02*
X159636835Y-114171428D01*
X159636835Y-114171428D02*
X159636835Y-114128571D01*
X159636835Y-114357143D02*
X159436835Y-114357143D01*
X159436835Y-114357143D02*
X159436835Y-114471429D01*
X159436835Y-114757143D02*
X159436835Y-114900000D01*
X159436835Y-114828572D02*
X159636835Y-114828572D01*
X159622550Y-115114286D02*
X159636835Y-115085714D01*
X159636835Y-115085714D02*
X159636835Y-115028572D01*
X159636835Y-115028572D02*
X159622550Y-115000000D01*
X159622550Y-115000000D02*
X159593978Y-114985714D01*
X159593978Y-114985714D02*
X159479692Y-114985714D01*
X159479692Y-114985714D02*
X159451121Y-115000000D01*
X159451121Y-115000000D02*
X159436835Y-115028572D01*
X159436835Y-115028572D02*
X159436835Y-115085714D01*
X159436835Y-115085714D02*
X159451121Y-115114286D01*
X159451121Y-115114286D02*
X159479692Y-115128572D01*
X159479692Y-115128572D02*
X159508264Y-115128572D01*
X159508264Y-115128572D02*
X159536835Y-114985714D01*
X159322550Y-115400000D02*
X159336835Y-115385715D01*
X159336835Y-115385715D02*
X159351121Y-115357143D01*
X159351121Y-115357143D02*
X159351121Y-115300000D01*
X159351121Y-115300000D02*
X159365407Y-115271429D01*
X159365407Y-115271429D02*
X159379692Y-115257143D01*
X159379692Y-115257143D02*
X159408264Y-115242857D01*
X159408264Y-115242857D02*
X159579692Y-115242857D01*
X159579692Y-115242857D02*
X159608264Y-115257143D01*
X159608264Y-115257143D02*
X159622550Y-115271429D01*
X159622550Y-115271429D02*
X159636835Y-115300000D01*
X159636835Y-115300000D02*
X159636835Y-115342857D01*
X159636835Y-115342857D02*
X159622550Y-115371429D01*
X159622550Y-115371429D02*
X159608264Y-115385715D01*
X159608264Y-115385715D02*
X159579692Y-115400000D01*
X159579692Y-115400000D02*
X159493978Y-115400000D01*
X159493978Y-115400000D02*
X159465407Y-115385715D01*
X159465407Y-115385715D02*
X159451121Y-115371429D01*
X159451121Y-115371429D02*
X159436835Y-115342857D01*
X159436835Y-115342857D02*
X159436835Y-115285715D01*
X159436835Y-115285715D02*
X159451121Y-115257143D01*
X159451121Y-115257143D02*
X159465407Y-115242857D01*
X159551121Y-115585715D02*
X159636835Y-115514286D01*
X159636835Y-115642858D02*
X159436835Y-115642858D01*
X159436835Y-115642858D02*
X159436835Y-115557144D01*
X159436835Y-115557144D02*
X159451121Y-115528572D01*
X159451121Y-115528572D02*
X159479692Y-115514286D01*
X159479692Y-115514286D02*
X159508264Y-115514286D01*
X159508264Y-115514286D02*
X159536835Y-115528572D01*
X159536835Y-115528572D02*
X159551121Y-115557144D01*
X159551121Y-115557144D02*
X159551121Y-115642858D01*
X159636835Y-116014286D02*
X159436835Y-116014286D01*
X159436835Y-116014286D02*
X159436835Y-116142858D01*
X159436835Y-116142858D02*
X159636835Y-116142858D01*
X159636835Y-116328572D02*
X159622550Y-116300001D01*
X159622550Y-116300001D02*
X159608264Y-116285715D01*
X159608264Y-116285715D02*
X159579692Y-116271429D01*
X159579692Y-116271429D02*
X159493978Y-116271429D01*
X159493978Y-116271429D02*
X159465407Y-116285715D01*
X159465407Y-116285715D02*
X159451121Y-116300001D01*
X159451121Y-116300001D02*
X159436835Y-116328572D01*
X159436835Y-116328572D02*
X159436835Y-116371429D01*
X159436835Y-116371429D02*
X159451121Y-116400001D01*
X159451121Y-116400001D02*
X159465407Y-116414287D01*
X159465407Y-116414287D02*
X159493978Y-116428572D01*
X159493978Y-116428572D02*
X159579692Y-116428572D01*
X159579692Y-116428572D02*
X159608264Y-116414287D01*
X159608264Y-116414287D02*
X159622550Y-116400001D01*
X159622550Y-116400001D02*
X159636835Y-116371429D01*
X159636835Y-116371429D02*
X159636835Y-116328572D01*
X159636835Y-116671430D02*
X159436835Y-116671430D01*
X159436835Y-116671430D02*
X159436835Y-116628573D01*
X159436835Y-116628573D02*
X159451121Y-116600001D01*
X159451121Y-116600001D02*
X159479692Y-116585716D01*
X159479692Y-116585716D02*
X159593978Y-116571430D01*
X159593978Y-116571430D02*
X159622550Y-116557144D01*
X159622550Y-116557144D02*
X159636835Y-116528573D01*
X159536835Y-116814287D02*
X159536835Y-116900001D01*
X159436835Y-116814287D02*
X159636835Y-116814287D01*
X159636835Y-116957144D02*
X159622550Y-116928573D01*
X159622550Y-116928573D02*
X159608264Y-116914287D01*
X159608264Y-116914287D02*
X159579692Y-116900001D01*
X159579692Y-116900001D02*
X159493978Y-116900001D01*
X159493978Y-116900001D02*
X159465407Y-116914287D01*
X159465407Y-116914287D02*
X159451121Y-116928573D01*
X159451121Y-116928573D02*
X159436835Y-116957144D01*
X159436835Y-116957144D02*
X159436835Y-117000001D01*
X159436835Y-117000001D02*
X159451121Y-117028573D01*
X159451121Y-117028573D02*
X159465407Y-117042859D01*
X159465407Y-117042859D02*
X159493978Y-117057144D01*
X159493978Y-117057144D02*
X159579692Y-117057144D01*
X159579692Y-117057144D02*
X159608264Y-117042859D01*
X159608264Y-117042859D02*
X159622550Y-117028573D01*
X159622550Y-117028573D02*
X159636835Y-117000001D01*
X159636835Y-117000001D02*
X159636835Y-116957144D01*
X159322550Y-117328573D02*
X159336835Y-117314288D01*
X159336835Y-117314288D02*
X159351121Y-117285716D01*
X159351121Y-117285716D02*
X159351121Y-117228573D01*
X159351121Y-117228573D02*
X159365407Y-117200002D01*
X159365407Y-117200002D02*
X159379692Y-117185716D01*
X159379692Y-117185716D02*
X159408264Y-117171430D01*
X159408264Y-117171430D02*
X159579692Y-117171430D01*
X159579692Y-117171430D02*
X159608264Y-117185716D01*
X159608264Y-117185716D02*
X159622550Y-117200002D01*
X159622550Y-117200002D02*
X159636835Y-117228573D01*
X159636835Y-117228573D02*
X159636835Y-117271430D01*
X159636835Y-117271430D02*
X159622550Y-117300002D01*
X159622550Y-117300002D02*
X159608264Y-117314288D01*
X159608264Y-117314288D02*
X159579692Y-117328573D01*
X159579692Y-117328573D02*
X159493978Y-117328573D01*
X159493978Y-117328573D02*
X159465407Y-117314288D01*
X159465407Y-117314288D02*
X159451121Y-117300002D01*
X159451121Y-117300002D02*
X159436835Y-117271430D01*
X159436835Y-117271430D02*
X159436835Y-117214288D01*
X159436835Y-117214288D02*
X159451121Y-117185716D01*
X159451121Y-117185716D02*
X159465407Y-117171430D01*
X159436835Y-117457145D02*
X159636835Y-117457145D01*
X159636835Y-117457145D02*
X159436835Y-117600002D01*
X159436835Y-117600002D02*
X159636835Y-117600002D01*
X159436835Y-117700002D02*
X159436835Y-117842859D01*
X159436835Y-117771431D02*
X159636835Y-117771431D01*
X159436835Y-117942859D02*
X159636835Y-117942859D01*
X159636835Y-117942859D02*
X159636835Y-118014288D01*
X159636835Y-118014288D02*
X159622550Y-118042859D01*
X159622550Y-118042859D02*
X159593978Y-118057145D01*
X159593978Y-118057145D02*
X159551121Y-118057145D01*
X159551121Y-118057145D02*
X159522550Y-118042859D01*
X159522550Y-118042859D02*
X159508264Y-118014288D01*
X159508264Y-118014288D02*
X159508264Y-117942859D01*
D11*
X151932309Y-67201283D02*
X151432309Y-67201283D01*
X151432309Y-67201283D02*
X151789452Y-67367950D01*
X151789452Y-67367950D02*
X151432309Y-67534616D01*
X151432309Y-67534616D02*
X151932309Y-67534616D01*
X151932309Y-67986998D02*
X151670404Y-67986998D01*
X151670404Y-67986998D02*
X151622785Y-67963188D01*
X151622785Y-67963188D02*
X151598976Y-67915569D01*
X151598976Y-67915569D02*
X151598976Y-67820331D01*
X151598976Y-67820331D02*
X151622785Y-67772712D01*
X151908500Y-67986998D02*
X151932309Y-67939379D01*
X151932309Y-67939379D02*
X151932309Y-67820331D01*
X151932309Y-67820331D02*
X151908500Y-67772712D01*
X151908500Y-67772712D02*
X151860880Y-67748903D01*
X151860880Y-67748903D02*
X151813261Y-67748903D01*
X151813261Y-67748903D02*
X151765642Y-67772712D01*
X151765642Y-67772712D02*
X151741833Y-67820331D01*
X151741833Y-67820331D02*
X151741833Y-67939379D01*
X151741833Y-67939379D02*
X151718023Y-67986998D01*
X151932309Y-68439379D02*
X151432309Y-68439379D01*
X151908500Y-68439379D02*
X151932309Y-68391760D01*
X151932309Y-68391760D02*
X151932309Y-68296522D01*
X151932309Y-68296522D02*
X151908500Y-68248903D01*
X151908500Y-68248903D02*
X151884690Y-68225093D01*
X151884690Y-68225093D02*
X151837071Y-68201284D01*
X151837071Y-68201284D02*
X151694214Y-68201284D01*
X151694214Y-68201284D02*
X151646595Y-68225093D01*
X151646595Y-68225093D02*
X151622785Y-68248903D01*
X151622785Y-68248903D02*
X151598976Y-68296522D01*
X151598976Y-68296522D02*
X151598976Y-68391760D01*
X151598976Y-68391760D02*
X151622785Y-68439379D01*
X151908500Y-68867950D02*
X151932309Y-68820331D01*
X151932309Y-68820331D02*
X151932309Y-68725093D01*
X151932309Y-68725093D02*
X151908500Y-68677474D01*
X151908500Y-68677474D02*
X151860880Y-68653665D01*
X151860880Y-68653665D02*
X151670404Y-68653665D01*
X151670404Y-68653665D02*
X151622785Y-68677474D01*
X151622785Y-68677474D02*
X151598976Y-68725093D01*
X151598976Y-68725093D02*
X151598976Y-68820331D01*
X151598976Y-68820331D02*
X151622785Y-68867950D01*
X151622785Y-68867950D02*
X151670404Y-68891760D01*
X151670404Y-68891760D02*
X151718023Y-68891760D01*
X151718023Y-68891760D02*
X151765642Y-68653665D01*
X151598976Y-69439378D02*
X151932309Y-69534616D01*
X151932309Y-69534616D02*
X151694214Y-69629854D01*
X151694214Y-69629854D02*
X151932309Y-69725092D01*
X151932309Y-69725092D02*
X151598976Y-69820330D01*
X151932309Y-70010807D02*
X151598976Y-70010807D01*
X151432309Y-70010807D02*
X151456119Y-69986998D01*
X151456119Y-69986998D02*
X151479928Y-70010807D01*
X151479928Y-70010807D02*
X151456119Y-70034617D01*
X151456119Y-70034617D02*
X151432309Y-70010807D01*
X151432309Y-70010807D02*
X151479928Y-70010807D01*
X151598976Y-70177474D02*
X151598976Y-70367950D01*
X151432309Y-70248902D02*
X151860880Y-70248902D01*
X151860880Y-70248902D02*
X151908500Y-70272712D01*
X151908500Y-70272712D02*
X151932309Y-70320331D01*
X151932309Y-70320331D02*
X151932309Y-70367950D01*
X151932309Y-70534616D02*
X151432309Y-70534616D01*
X151932309Y-70748902D02*
X151670404Y-70748902D01*
X151670404Y-70748902D02*
X151622785Y-70725092D01*
X151622785Y-70725092D02*
X151598976Y-70677473D01*
X151598976Y-70677473D02*
X151598976Y-70606045D01*
X151598976Y-70606045D02*
X151622785Y-70558426D01*
X151622785Y-70558426D02*
X151646595Y-70534616D01*
X151598976Y-71296521D02*
X151598976Y-71486997D01*
X151432309Y-71367949D02*
X151860880Y-71367949D01*
X151860880Y-71367949D02*
X151908500Y-71391759D01*
X151908500Y-71391759D02*
X151932309Y-71439378D01*
X151932309Y-71439378D02*
X151932309Y-71486997D01*
X151932309Y-71653663D02*
X151432309Y-71653663D01*
X151932309Y-71867949D02*
X151670404Y-71867949D01*
X151670404Y-71867949D02*
X151622785Y-71844139D01*
X151622785Y-71844139D02*
X151598976Y-71796520D01*
X151598976Y-71796520D02*
X151598976Y-71725092D01*
X151598976Y-71725092D02*
X151622785Y-71677473D01*
X151622785Y-71677473D02*
X151646595Y-71653663D01*
X151908500Y-72296520D02*
X151932309Y-72248901D01*
X151932309Y-72248901D02*
X151932309Y-72153663D01*
X151932309Y-72153663D02*
X151908500Y-72106044D01*
X151908500Y-72106044D02*
X151860880Y-72082235D01*
X151860880Y-72082235D02*
X151670404Y-72082235D01*
X151670404Y-72082235D02*
X151622785Y-72106044D01*
X151622785Y-72106044D02*
X151598976Y-72153663D01*
X151598976Y-72153663D02*
X151598976Y-72248901D01*
X151598976Y-72248901D02*
X151622785Y-72296520D01*
X151622785Y-72296520D02*
X151670404Y-72320330D01*
X151670404Y-72320330D02*
X151718023Y-72320330D01*
X151718023Y-72320330D02*
X151765642Y-72082235D01*
X151932309Y-72915567D02*
X151432309Y-72915567D01*
X151622785Y-72915567D02*
X151598976Y-72963186D01*
X151598976Y-72963186D02*
X151598976Y-73058424D01*
X151598976Y-73058424D02*
X151622785Y-73106043D01*
X151622785Y-73106043D02*
X151646595Y-73129853D01*
X151646595Y-73129853D02*
X151694214Y-73153662D01*
X151694214Y-73153662D02*
X151837071Y-73153662D01*
X151837071Y-73153662D02*
X151884690Y-73129853D01*
X151884690Y-73129853D02*
X151908500Y-73106043D01*
X151908500Y-73106043D02*
X151932309Y-73058424D01*
X151932309Y-73058424D02*
X151932309Y-72963186D01*
X151932309Y-72963186D02*
X151908500Y-72915567D01*
X151932309Y-73439377D02*
X151908500Y-73391758D01*
X151908500Y-73391758D02*
X151860880Y-73367948D01*
X151860880Y-73367948D02*
X151432309Y-73367948D01*
X151932309Y-73701282D02*
X151908500Y-73653663D01*
X151908500Y-73653663D02*
X151884690Y-73629853D01*
X151884690Y-73629853D02*
X151837071Y-73606044D01*
X151837071Y-73606044D02*
X151694214Y-73606044D01*
X151694214Y-73606044D02*
X151646595Y-73629853D01*
X151646595Y-73629853D02*
X151622785Y-73653663D01*
X151622785Y-73653663D02*
X151598976Y-73701282D01*
X151598976Y-73701282D02*
X151598976Y-73772710D01*
X151598976Y-73772710D02*
X151622785Y-73820329D01*
X151622785Y-73820329D02*
X151646595Y-73844139D01*
X151646595Y-73844139D02*
X151694214Y-73867948D01*
X151694214Y-73867948D02*
X151837071Y-73867948D01*
X151837071Y-73867948D02*
X151884690Y-73844139D01*
X151884690Y-73844139D02*
X151908500Y-73820329D01*
X151908500Y-73820329D02*
X151932309Y-73772710D01*
X151932309Y-73772710D02*
X151932309Y-73701282D01*
X151932309Y-74153663D02*
X151908500Y-74106044D01*
X151908500Y-74106044D02*
X151884690Y-74082234D01*
X151884690Y-74082234D02*
X151837071Y-74058425D01*
X151837071Y-74058425D02*
X151694214Y-74058425D01*
X151694214Y-74058425D02*
X151646595Y-74082234D01*
X151646595Y-74082234D02*
X151622785Y-74106044D01*
X151622785Y-74106044D02*
X151598976Y-74153663D01*
X151598976Y-74153663D02*
X151598976Y-74225091D01*
X151598976Y-74225091D02*
X151622785Y-74272710D01*
X151622785Y-74272710D02*
X151646595Y-74296520D01*
X151646595Y-74296520D02*
X151694214Y-74320329D01*
X151694214Y-74320329D02*
X151837071Y-74320329D01*
X151837071Y-74320329D02*
X151884690Y-74296520D01*
X151884690Y-74296520D02*
X151908500Y-74272710D01*
X151908500Y-74272710D02*
X151932309Y-74225091D01*
X151932309Y-74225091D02*
X151932309Y-74153663D01*
X151932309Y-74748901D02*
X151432309Y-74748901D01*
X151908500Y-74748901D02*
X151932309Y-74701282D01*
X151932309Y-74701282D02*
X151932309Y-74606044D01*
X151932309Y-74606044D02*
X151908500Y-74558425D01*
X151908500Y-74558425D02*
X151884690Y-74534615D01*
X151884690Y-74534615D02*
X151837071Y-74510806D01*
X151837071Y-74510806D02*
X151694214Y-74510806D01*
X151694214Y-74510806D02*
X151646595Y-74534615D01*
X151646595Y-74534615D02*
X151622785Y-74558425D01*
X151622785Y-74558425D02*
X151598976Y-74606044D01*
X151598976Y-74606044D02*
X151598976Y-74701282D01*
X151598976Y-74701282D02*
X151622785Y-74748901D01*
X151908500Y-75344139D02*
X151932309Y-75391758D01*
X151932309Y-75391758D02*
X151932309Y-75486996D01*
X151932309Y-75486996D02*
X151908500Y-75534615D01*
X151908500Y-75534615D02*
X151860880Y-75558424D01*
X151860880Y-75558424D02*
X151837071Y-75558424D01*
X151837071Y-75558424D02*
X151789452Y-75534615D01*
X151789452Y-75534615D02*
X151765642Y-75486996D01*
X151765642Y-75486996D02*
X151765642Y-75415567D01*
X151765642Y-75415567D02*
X151741833Y-75367948D01*
X151741833Y-75367948D02*
X151694214Y-75344139D01*
X151694214Y-75344139D02*
X151670404Y-75344139D01*
X151670404Y-75344139D02*
X151622785Y-75367948D01*
X151622785Y-75367948D02*
X151598976Y-75415567D01*
X151598976Y-75415567D02*
X151598976Y-75486996D01*
X151598976Y-75486996D02*
X151622785Y-75534615D01*
X151598976Y-75725091D02*
X151932309Y-75820329D01*
X151932309Y-75820329D02*
X151694214Y-75915567D01*
X151694214Y-75915567D02*
X151932309Y-76010805D01*
X151932309Y-76010805D02*
X151598976Y-76106043D01*
X151908500Y-76486996D02*
X151932309Y-76439377D01*
X151932309Y-76439377D02*
X151932309Y-76344139D01*
X151932309Y-76344139D02*
X151908500Y-76296520D01*
X151908500Y-76296520D02*
X151860880Y-76272711D01*
X151860880Y-76272711D02*
X151670404Y-76272711D01*
X151670404Y-76272711D02*
X151622785Y-76296520D01*
X151622785Y-76296520D02*
X151598976Y-76344139D01*
X151598976Y-76344139D02*
X151598976Y-76439377D01*
X151598976Y-76439377D02*
X151622785Y-76486996D01*
X151622785Y-76486996D02*
X151670404Y-76510806D01*
X151670404Y-76510806D02*
X151718023Y-76510806D01*
X151718023Y-76510806D02*
X151765642Y-76272711D01*
X151932309Y-76939377D02*
X151670404Y-76939377D01*
X151670404Y-76939377D02*
X151622785Y-76915567D01*
X151622785Y-76915567D02*
X151598976Y-76867948D01*
X151598976Y-76867948D02*
X151598976Y-76772710D01*
X151598976Y-76772710D02*
X151622785Y-76725091D01*
X151908500Y-76939377D02*
X151932309Y-76891758D01*
X151932309Y-76891758D02*
X151932309Y-76772710D01*
X151932309Y-76772710D02*
X151908500Y-76725091D01*
X151908500Y-76725091D02*
X151860880Y-76701282D01*
X151860880Y-76701282D02*
X151813261Y-76701282D01*
X151813261Y-76701282D02*
X151765642Y-76725091D01*
X151765642Y-76725091D02*
X151741833Y-76772710D01*
X151741833Y-76772710D02*
X151741833Y-76891758D01*
X151741833Y-76891758D02*
X151718023Y-76939377D01*
X151598976Y-77106044D02*
X151598976Y-77296520D01*
X151432309Y-77177472D02*
X151860880Y-77177472D01*
X151860880Y-77177472D02*
X151908500Y-77201282D01*
X151908500Y-77201282D02*
X151932309Y-77248901D01*
X151932309Y-77248901D02*
X151932309Y-77296520D01*
X151932309Y-78058424D02*
X151670404Y-78058424D01*
X151670404Y-78058424D02*
X151622785Y-78034614D01*
X151622785Y-78034614D02*
X151598976Y-77986995D01*
X151598976Y-77986995D02*
X151598976Y-77891757D01*
X151598976Y-77891757D02*
X151622785Y-77844138D01*
X151908500Y-78058424D02*
X151932309Y-78010805D01*
X151932309Y-78010805D02*
X151932309Y-77891757D01*
X151932309Y-77891757D02*
X151908500Y-77844138D01*
X151908500Y-77844138D02*
X151860880Y-77820329D01*
X151860880Y-77820329D02*
X151813261Y-77820329D01*
X151813261Y-77820329D02*
X151765642Y-77844138D01*
X151765642Y-77844138D02*
X151741833Y-77891757D01*
X151741833Y-77891757D02*
X151741833Y-78010805D01*
X151741833Y-78010805D02*
X151718023Y-78058424D01*
X151598976Y-78296519D02*
X151932309Y-78296519D01*
X151646595Y-78296519D02*
X151622785Y-78320329D01*
X151622785Y-78320329D02*
X151598976Y-78367948D01*
X151598976Y-78367948D02*
X151598976Y-78439376D01*
X151598976Y-78439376D02*
X151622785Y-78486995D01*
X151622785Y-78486995D02*
X151670404Y-78510805D01*
X151670404Y-78510805D02*
X151932309Y-78510805D01*
X151932309Y-78963186D02*
X151432309Y-78963186D01*
X151908500Y-78963186D02*
X151932309Y-78915567D01*
X151932309Y-78915567D02*
X151932309Y-78820329D01*
X151932309Y-78820329D02*
X151908500Y-78772710D01*
X151908500Y-78772710D02*
X151884690Y-78748900D01*
X151884690Y-78748900D02*
X151837071Y-78725091D01*
X151837071Y-78725091D02*
X151694214Y-78725091D01*
X151694214Y-78725091D02*
X151646595Y-78748900D01*
X151646595Y-78748900D02*
X151622785Y-78772710D01*
X151622785Y-78772710D02*
X151598976Y-78820329D01*
X151598976Y-78820329D02*
X151598976Y-78915567D01*
X151598976Y-78915567D02*
X151622785Y-78963186D01*
X151932309Y-79582233D02*
X151598976Y-79582233D01*
X151646595Y-79582233D02*
X151622785Y-79606043D01*
X151622785Y-79606043D02*
X151598976Y-79653662D01*
X151598976Y-79653662D02*
X151598976Y-79725090D01*
X151598976Y-79725090D02*
X151622785Y-79772709D01*
X151622785Y-79772709D02*
X151670404Y-79796519D01*
X151670404Y-79796519D02*
X151932309Y-79796519D01*
X151670404Y-79796519D02*
X151622785Y-79820328D01*
X151622785Y-79820328D02*
X151598976Y-79867947D01*
X151598976Y-79867947D02*
X151598976Y-79939376D01*
X151598976Y-79939376D02*
X151622785Y-79986995D01*
X151622785Y-79986995D02*
X151670404Y-80010805D01*
X151670404Y-80010805D02*
X151932309Y-80010805D01*
X151932309Y-80463186D02*
X151670404Y-80463186D01*
X151670404Y-80463186D02*
X151622785Y-80439376D01*
X151622785Y-80439376D02*
X151598976Y-80391757D01*
X151598976Y-80391757D02*
X151598976Y-80296519D01*
X151598976Y-80296519D02*
X151622785Y-80248900D01*
X151908500Y-80463186D02*
X151932309Y-80415567D01*
X151932309Y-80415567D02*
X151932309Y-80296519D01*
X151932309Y-80296519D02*
X151908500Y-80248900D01*
X151908500Y-80248900D02*
X151860880Y-80225091D01*
X151860880Y-80225091D02*
X151813261Y-80225091D01*
X151813261Y-80225091D02*
X151765642Y-80248900D01*
X151765642Y-80248900D02*
X151741833Y-80296519D01*
X151741833Y-80296519D02*
X151741833Y-80415567D01*
X151741833Y-80415567D02*
X151718023Y-80463186D01*
X151598976Y-80701281D02*
X151932309Y-80701281D01*
X151646595Y-80701281D02*
X151622785Y-80725091D01*
X151622785Y-80725091D02*
X151598976Y-80772710D01*
X151598976Y-80772710D02*
X151598976Y-80844138D01*
X151598976Y-80844138D02*
X151622785Y-80891757D01*
X151622785Y-80891757D02*
X151670404Y-80915567D01*
X151670404Y-80915567D02*
X151932309Y-80915567D01*
X151598976Y-81106043D02*
X151932309Y-81225091D01*
X151598976Y-81344138D02*
X151932309Y-81225091D01*
X151932309Y-81225091D02*
X152051357Y-81177472D01*
X152051357Y-81177472D02*
X152075166Y-81153662D01*
X152075166Y-81153662D02*
X152098976Y-81106043D01*
X151598976Y-81844138D02*
X151598976Y-82034614D01*
X151432309Y-81915566D02*
X151860880Y-81915566D01*
X151860880Y-81915566D02*
X151908500Y-81939376D01*
X151908500Y-81939376D02*
X151932309Y-81986995D01*
X151932309Y-81986995D02*
X151932309Y-82034614D01*
X151908500Y-82391756D02*
X151932309Y-82344137D01*
X151932309Y-82344137D02*
X151932309Y-82248899D01*
X151932309Y-82248899D02*
X151908500Y-82201280D01*
X151908500Y-82201280D02*
X151860880Y-82177471D01*
X151860880Y-82177471D02*
X151670404Y-82177471D01*
X151670404Y-82177471D02*
X151622785Y-82201280D01*
X151622785Y-82201280D02*
X151598976Y-82248899D01*
X151598976Y-82248899D02*
X151598976Y-82344137D01*
X151598976Y-82344137D02*
X151622785Y-82391756D01*
X151622785Y-82391756D02*
X151670404Y-82415566D01*
X151670404Y-82415566D02*
X151718023Y-82415566D01*
X151718023Y-82415566D02*
X151765642Y-82177471D01*
X151932309Y-82844137D02*
X151670404Y-82844137D01*
X151670404Y-82844137D02*
X151622785Y-82820327D01*
X151622785Y-82820327D02*
X151598976Y-82772708D01*
X151598976Y-82772708D02*
X151598976Y-82677470D01*
X151598976Y-82677470D02*
X151622785Y-82629851D01*
X151908500Y-82844137D02*
X151932309Y-82796518D01*
X151932309Y-82796518D02*
X151932309Y-82677470D01*
X151932309Y-82677470D02*
X151908500Y-82629851D01*
X151908500Y-82629851D02*
X151860880Y-82606042D01*
X151860880Y-82606042D02*
X151813261Y-82606042D01*
X151813261Y-82606042D02*
X151765642Y-82629851D01*
X151765642Y-82629851D02*
X151741833Y-82677470D01*
X151741833Y-82677470D02*
X151741833Y-82796518D01*
X151741833Y-82796518D02*
X151718023Y-82844137D01*
X151932309Y-83082232D02*
X151598976Y-83082232D01*
X151694214Y-83082232D02*
X151646595Y-83106042D01*
X151646595Y-83106042D02*
X151622785Y-83129851D01*
X151622785Y-83129851D02*
X151598976Y-83177470D01*
X151598976Y-83177470D02*
X151598976Y-83225089D01*
X151908500Y-83367947D02*
X151932309Y-83415566D01*
X151932309Y-83415566D02*
X151932309Y-83510804D01*
X151932309Y-83510804D02*
X151908500Y-83558423D01*
X151908500Y-83558423D02*
X151860880Y-83582232D01*
X151860880Y-83582232D02*
X151837071Y-83582232D01*
X151837071Y-83582232D02*
X151789452Y-83558423D01*
X151789452Y-83558423D02*
X151765642Y-83510804D01*
X151765642Y-83510804D02*
X151765642Y-83439375D01*
X151765642Y-83439375D02*
X151741833Y-83391756D01*
X151741833Y-83391756D02*
X151694214Y-83367947D01*
X151694214Y-83367947D02*
X151670404Y-83367947D01*
X151670404Y-83367947D02*
X151622785Y-83391756D01*
X151622785Y-83391756D02*
X151598976Y-83439375D01*
X151598976Y-83439375D02*
X151598976Y-83510804D01*
X151598976Y-83510804D02*
X151622785Y-83558423D01*
X151932309Y-84248899D02*
X151908500Y-84201280D01*
X151908500Y-84201280D02*
X151884690Y-84177470D01*
X151884690Y-84177470D02*
X151837071Y-84153661D01*
X151837071Y-84153661D02*
X151694214Y-84153661D01*
X151694214Y-84153661D02*
X151646595Y-84177470D01*
X151646595Y-84177470D02*
X151622785Y-84201280D01*
X151622785Y-84201280D02*
X151598976Y-84248899D01*
X151598976Y-84248899D02*
X151598976Y-84320327D01*
X151598976Y-84320327D02*
X151622785Y-84367946D01*
X151622785Y-84367946D02*
X151646595Y-84391756D01*
X151646595Y-84391756D02*
X151694214Y-84415565D01*
X151694214Y-84415565D02*
X151837071Y-84415565D01*
X151837071Y-84415565D02*
X151884690Y-84391756D01*
X151884690Y-84391756D02*
X151908500Y-84367946D01*
X151908500Y-84367946D02*
X151932309Y-84320327D01*
X151932309Y-84320327D02*
X151932309Y-84248899D01*
X151598976Y-84558423D02*
X151598976Y-84748899D01*
X151932309Y-84629851D02*
X151503738Y-84629851D01*
X151503738Y-84629851D02*
X151456119Y-84653661D01*
X151456119Y-84653661D02*
X151432309Y-84701280D01*
X151432309Y-84701280D02*
X151432309Y-84748899D01*
X151932309Y-85296517D02*
X151432309Y-85296517D01*
X151432309Y-85296517D02*
X151789452Y-85463184D01*
X151789452Y-85463184D02*
X151432309Y-85629850D01*
X151432309Y-85629850D02*
X151932309Y-85629850D01*
X151932309Y-86082232D02*
X151670404Y-86082232D01*
X151670404Y-86082232D02*
X151622785Y-86058422D01*
X151622785Y-86058422D02*
X151598976Y-86010803D01*
X151598976Y-86010803D02*
X151598976Y-85915565D01*
X151598976Y-85915565D02*
X151622785Y-85867946D01*
X151908500Y-86082232D02*
X151932309Y-86034613D01*
X151932309Y-86034613D02*
X151932309Y-85915565D01*
X151932309Y-85915565D02*
X151908500Y-85867946D01*
X151908500Y-85867946D02*
X151860880Y-85844137D01*
X151860880Y-85844137D02*
X151813261Y-85844137D01*
X151813261Y-85844137D02*
X151765642Y-85867946D01*
X151765642Y-85867946D02*
X151741833Y-85915565D01*
X151741833Y-85915565D02*
X151741833Y-86034613D01*
X151741833Y-86034613D02*
X151718023Y-86082232D01*
X151932309Y-86320327D02*
X151598976Y-86320327D01*
X151694214Y-86320327D02*
X151646595Y-86344137D01*
X151646595Y-86344137D02*
X151622785Y-86367946D01*
X151622785Y-86367946D02*
X151598976Y-86415565D01*
X151598976Y-86415565D02*
X151598976Y-86463184D01*
X151598976Y-86558423D02*
X151598976Y-86748899D01*
X151432309Y-86629851D02*
X151860880Y-86629851D01*
X151860880Y-86629851D02*
X151908500Y-86653661D01*
X151908500Y-86653661D02*
X151932309Y-86701280D01*
X151932309Y-86701280D02*
X151932309Y-86748899D01*
X151932309Y-86915565D02*
X151598976Y-86915565D01*
X151432309Y-86915565D02*
X151456119Y-86891756D01*
X151456119Y-86891756D02*
X151479928Y-86915565D01*
X151479928Y-86915565D02*
X151456119Y-86939375D01*
X151456119Y-86939375D02*
X151432309Y-86915565D01*
X151432309Y-86915565D02*
X151479928Y-86915565D01*
X151932309Y-87153660D02*
X151598976Y-87153660D01*
X151646595Y-87153660D02*
X151622785Y-87177470D01*
X151622785Y-87177470D02*
X151598976Y-87225089D01*
X151598976Y-87225089D02*
X151598976Y-87296517D01*
X151598976Y-87296517D02*
X151622785Y-87344136D01*
X151622785Y-87344136D02*
X151670404Y-87367946D01*
X151670404Y-87367946D02*
X151932309Y-87367946D01*
X151670404Y-87367946D02*
X151622785Y-87391755D01*
X151622785Y-87391755D02*
X151598976Y-87439374D01*
X151598976Y-87439374D02*
X151598976Y-87510803D01*
X151598976Y-87510803D02*
X151622785Y-87558422D01*
X151622785Y-87558422D02*
X151670404Y-87582232D01*
X151670404Y-87582232D02*
X151932309Y-87582232D01*
X151908500Y-88177470D02*
X151932309Y-88248898D01*
X151932309Y-88248898D02*
X151932309Y-88367946D01*
X151932309Y-88367946D02*
X151908500Y-88415565D01*
X151908500Y-88415565D02*
X151884690Y-88439374D01*
X151884690Y-88439374D02*
X151837071Y-88463184D01*
X151837071Y-88463184D02*
X151789452Y-88463184D01*
X151789452Y-88463184D02*
X151741833Y-88439374D01*
X151741833Y-88439374D02*
X151718023Y-88415565D01*
X151718023Y-88415565D02*
X151694214Y-88367946D01*
X151694214Y-88367946D02*
X151670404Y-88272708D01*
X151670404Y-88272708D02*
X151646595Y-88225089D01*
X151646595Y-88225089D02*
X151622785Y-88201279D01*
X151622785Y-88201279D02*
X151575166Y-88177470D01*
X151575166Y-88177470D02*
X151527547Y-88177470D01*
X151527547Y-88177470D02*
X151479928Y-88201279D01*
X151479928Y-88201279D02*
X151456119Y-88225089D01*
X151456119Y-88225089D02*
X151432309Y-88272708D01*
X151432309Y-88272708D02*
X151432309Y-88391755D01*
X151432309Y-88391755D02*
X151456119Y-88463184D01*
X151932309Y-88677469D02*
X151598976Y-88677469D01*
X151432309Y-88677469D02*
X151456119Y-88653660D01*
X151456119Y-88653660D02*
X151479928Y-88677469D01*
X151479928Y-88677469D02*
X151456119Y-88701279D01*
X151456119Y-88701279D02*
X151432309Y-88677469D01*
X151432309Y-88677469D02*
X151479928Y-88677469D01*
X151932309Y-88986993D02*
X151908500Y-88939374D01*
X151908500Y-88939374D02*
X151860880Y-88915564D01*
X151860880Y-88915564D02*
X151432309Y-88915564D01*
X151598976Y-89129850D02*
X151932309Y-89248898D01*
X151932309Y-89248898D02*
X151598976Y-89367945D01*
X151932309Y-89772707D02*
X151670404Y-89772707D01*
X151670404Y-89772707D02*
X151622785Y-89748897D01*
X151622785Y-89748897D02*
X151598976Y-89701278D01*
X151598976Y-89701278D02*
X151598976Y-89606040D01*
X151598976Y-89606040D02*
X151622785Y-89558421D01*
X151908500Y-89772707D02*
X151932309Y-89725088D01*
X151932309Y-89725088D02*
X151932309Y-89606040D01*
X151932309Y-89606040D02*
X151908500Y-89558421D01*
X151908500Y-89558421D02*
X151860880Y-89534612D01*
X151860880Y-89534612D02*
X151813261Y-89534612D01*
X151813261Y-89534612D02*
X151765642Y-89558421D01*
X151765642Y-89558421D02*
X151741833Y-89606040D01*
X151741833Y-89606040D02*
X151741833Y-89725088D01*
X151741833Y-89725088D02*
X151718023Y-89772707D01*
X153122785Y-67344140D02*
X153098976Y-67320331D01*
X153098976Y-67320331D02*
X153027547Y-67272712D01*
X153027547Y-67272712D02*
X152979928Y-67248902D01*
X152979928Y-67248902D02*
X152908500Y-67225093D01*
X152908500Y-67225093D02*
X152789452Y-67201283D01*
X152789452Y-67201283D02*
X152694214Y-67201283D01*
X152694214Y-67201283D02*
X152575166Y-67225093D01*
X152575166Y-67225093D02*
X152503738Y-67248902D01*
X152503738Y-67248902D02*
X152456119Y-67272712D01*
X152456119Y-67272712D02*
X152384690Y-67320331D01*
X152384690Y-67320331D02*
X152360880Y-67344140D01*
X152789452Y-67510807D02*
X152789452Y-67748902D01*
X152932309Y-67463188D02*
X152432309Y-67629854D01*
X152432309Y-67629854D02*
X152932309Y-67796521D01*
X152598976Y-67891759D02*
X152598976Y-68082235D01*
X152932309Y-67963187D02*
X152503738Y-67963187D01*
X152503738Y-67963187D02*
X152456119Y-67986997D01*
X152456119Y-67986997D02*
X152432309Y-68034616D01*
X152432309Y-68034616D02*
X152432309Y-68082235D01*
X152598976Y-68177473D02*
X152598976Y-68367949D01*
X152432309Y-68248901D02*
X152860880Y-68248901D01*
X152860880Y-68248901D02*
X152908500Y-68272711D01*
X152908500Y-68272711D02*
X152932309Y-68320330D01*
X152932309Y-68320330D02*
X152932309Y-68367949D01*
X152908500Y-68725091D02*
X152932309Y-68677472D01*
X152932309Y-68677472D02*
X152932309Y-68582234D01*
X152932309Y-68582234D02*
X152908500Y-68534615D01*
X152908500Y-68534615D02*
X152860880Y-68510806D01*
X152860880Y-68510806D02*
X152670404Y-68510806D01*
X152670404Y-68510806D02*
X152622785Y-68534615D01*
X152622785Y-68534615D02*
X152598976Y-68582234D01*
X152598976Y-68582234D02*
X152598976Y-68677472D01*
X152598976Y-68677472D02*
X152622785Y-68725091D01*
X152622785Y-68725091D02*
X152670404Y-68748901D01*
X152670404Y-68748901D02*
X152718023Y-68748901D01*
X152718023Y-68748901D02*
X152765642Y-68510806D01*
X152932309Y-68963186D02*
X152598976Y-68963186D01*
X152694214Y-68963186D02*
X152646595Y-68986996D01*
X152646595Y-68986996D02*
X152622785Y-69010805D01*
X152622785Y-69010805D02*
X152598976Y-69058424D01*
X152598976Y-69058424D02*
X152598976Y-69106043D01*
X152932309Y-69653662D02*
X152598976Y-69653662D01*
X152646595Y-69653662D02*
X152622785Y-69677472D01*
X152622785Y-69677472D02*
X152598976Y-69725091D01*
X152598976Y-69725091D02*
X152598976Y-69796519D01*
X152598976Y-69796519D02*
X152622785Y-69844138D01*
X152622785Y-69844138D02*
X152670404Y-69867948D01*
X152670404Y-69867948D02*
X152932309Y-69867948D01*
X152670404Y-69867948D02*
X152622785Y-69891757D01*
X152622785Y-69891757D02*
X152598976Y-69939376D01*
X152598976Y-69939376D02*
X152598976Y-70010805D01*
X152598976Y-70010805D02*
X152622785Y-70058424D01*
X152622785Y-70058424D02*
X152670404Y-70082234D01*
X152670404Y-70082234D02*
X152932309Y-70082234D01*
X152598976Y-70534615D02*
X152932309Y-70534615D01*
X152598976Y-70320329D02*
X152860880Y-70320329D01*
X152860880Y-70320329D02*
X152908500Y-70344139D01*
X152908500Y-70344139D02*
X152932309Y-70391758D01*
X152932309Y-70391758D02*
X152932309Y-70463186D01*
X152932309Y-70463186D02*
X152908500Y-70510805D01*
X152908500Y-70510805D02*
X152884690Y-70534615D01*
X152932309Y-70844139D02*
X152908500Y-70796520D01*
X152908500Y-70796520D02*
X152860880Y-70772710D01*
X152860880Y-70772710D02*
X152432309Y-70772710D01*
X152598976Y-70963187D02*
X152598976Y-71153663D01*
X152432309Y-71034615D02*
X152860880Y-71034615D01*
X152860880Y-71034615D02*
X152908500Y-71058425D01*
X152908500Y-71058425D02*
X152932309Y-71106044D01*
X152932309Y-71106044D02*
X152932309Y-71153663D01*
X152932309Y-71320329D02*
X152598976Y-71320329D01*
X152432309Y-71320329D02*
X152456119Y-71296520D01*
X152456119Y-71296520D02*
X152479928Y-71320329D01*
X152479928Y-71320329D02*
X152456119Y-71344139D01*
X152456119Y-71344139D02*
X152432309Y-71320329D01*
X152432309Y-71320329D02*
X152479928Y-71320329D01*
X152598976Y-71558424D02*
X153098976Y-71558424D01*
X152622785Y-71558424D02*
X152598976Y-71606043D01*
X152598976Y-71606043D02*
X152598976Y-71701281D01*
X152598976Y-71701281D02*
X152622785Y-71748900D01*
X152622785Y-71748900D02*
X152646595Y-71772710D01*
X152646595Y-71772710D02*
X152694214Y-71796519D01*
X152694214Y-71796519D02*
X152837071Y-71796519D01*
X152837071Y-71796519D02*
X152884690Y-71772710D01*
X152884690Y-71772710D02*
X152908500Y-71748900D01*
X152908500Y-71748900D02*
X152932309Y-71701281D01*
X152932309Y-71701281D02*
X152932309Y-71606043D01*
X152932309Y-71606043D02*
X152908500Y-71558424D01*
X152932309Y-72082234D02*
X152908500Y-72034615D01*
X152908500Y-72034615D02*
X152860880Y-72010805D01*
X152860880Y-72010805D02*
X152432309Y-72010805D01*
X152908500Y-72463186D02*
X152932309Y-72415567D01*
X152932309Y-72415567D02*
X152932309Y-72320329D01*
X152932309Y-72320329D02*
X152908500Y-72272710D01*
X152908500Y-72272710D02*
X152860880Y-72248901D01*
X152860880Y-72248901D02*
X152670404Y-72248901D01*
X152670404Y-72248901D02*
X152622785Y-72272710D01*
X152622785Y-72272710D02*
X152598976Y-72320329D01*
X152598976Y-72320329D02*
X152598976Y-72415567D01*
X152598976Y-72415567D02*
X152622785Y-72463186D01*
X152622785Y-72463186D02*
X152670404Y-72486996D01*
X152670404Y-72486996D02*
X152718023Y-72486996D01*
X152718023Y-72486996D02*
X152765642Y-72248901D01*
X152932309Y-73082233D02*
X152598976Y-73082233D01*
X152694214Y-73082233D02*
X152646595Y-73106043D01*
X152646595Y-73106043D02*
X152622785Y-73129852D01*
X152622785Y-73129852D02*
X152598976Y-73177471D01*
X152598976Y-73177471D02*
X152598976Y-73225090D01*
X152932309Y-73463186D02*
X152908500Y-73415567D01*
X152908500Y-73415567D02*
X152884690Y-73391757D01*
X152884690Y-73391757D02*
X152837071Y-73367948D01*
X152837071Y-73367948D02*
X152694214Y-73367948D01*
X152694214Y-73367948D02*
X152646595Y-73391757D01*
X152646595Y-73391757D02*
X152622785Y-73415567D01*
X152622785Y-73415567D02*
X152598976Y-73463186D01*
X152598976Y-73463186D02*
X152598976Y-73534614D01*
X152598976Y-73534614D02*
X152622785Y-73582233D01*
X152622785Y-73582233D02*
X152646595Y-73606043D01*
X152646595Y-73606043D02*
X152694214Y-73629852D01*
X152694214Y-73629852D02*
X152837071Y-73629852D01*
X152837071Y-73629852D02*
X152884690Y-73606043D01*
X152884690Y-73606043D02*
X152908500Y-73582233D01*
X152908500Y-73582233D02*
X152932309Y-73534614D01*
X152932309Y-73534614D02*
X152932309Y-73463186D01*
X152598976Y-74058424D02*
X152932309Y-74058424D01*
X152598976Y-73844138D02*
X152860880Y-73844138D01*
X152860880Y-73844138D02*
X152908500Y-73867948D01*
X152908500Y-73867948D02*
X152932309Y-73915567D01*
X152932309Y-73915567D02*
X152932309Y-73986995D01*
X152932309Y-73986995D02*
X152908500Y-74034614D01*
X152908500Y-74034614D02*
X152884690Y-74058424D01*
X152598976Y-74296519D02*
X152932309Y-74296519D01*
X152646595Y-74296519D02*
X152622785Y-74320329D01*
X152622785Y-74320329D02*
X152598976Y-74367948D01*
X152598976Y-74367948D02*
X152598976Y-74439376D01*
X152598976Y-74439376D02*
X152622785Y-74486995D01*
X152622785Y-74486995D02*
X152670404Y-74510805D01*
X152670404Y-74510805D02*
X152932309Y-74510805D01*
X152932309Y-74963186D02*
X152432309Y-74963186D01*
X152908500Y-74963186D02*
X152932309Y-74915567D01*
X152932309Y-74915567D02*
X152932309Y-74820329D01*
X152932309Y-74820329D02*
X152908500Y-74772710D01*
X152908500Y-74772710D02*
X152884690Y-74748900D01*
X152884690Y-74748900D02*
X152837071Y-74725091D01*
X152837071Y-74725091D02*
X152694214Y-74725091D01*
X152694214Y-74725091D02*
X152646595Y-74748900D01*
X152646595Y-74748900D02*
X152622785Y-74772710D01*
X152622785Y-74772710D02*
X152598976Y-74820329D01*
X152598976Y-74820329D02*
X152598976Y-74915567D01*
X152598976Y-74915567D02*
X152622785Y-74963186D01*
X152908500Y-75177472D02*
X152932309Y-75225091D01*
X152932309Y-75225091D02*
X152932309Y-75320329D01*
X152932309Y-75320329D02*
X152908500Y-75367948D01*
X152908500Y-75367948D02*
X152860880Y-75391757D01*
X152860880Y-75391757D02*
X152837071Y-75391757D01*
X152837071Y-75391757D02*
X152789452Y-75367948D01*
X152789452Y-75367948D02*
X152765642Y-75320329D01*
X152765642Y-75320329D02*
X152765642Y-75248900D01*
X152765642Y-75248900D02*
X152741833Y-75201281D01*
X152741833Y-75201281D02*
X152694214Y-75177472D01*
X152694214Y-75177472D02*
X152670404Y-75177472D01*
X152670404Y-75177472D02*
X152622785Y-75201281D01*
X152622785Y-75201281D02*
X152598976Y-75248900D01*
X152598976Y-75248900D02*
X152598976Y-75320329D01*
X152598976Y-75320329D02*
X152622785Y-75367948D01*
X152932309Y-76058424D02*
X152908500Y-76010805D01*
X152908500Y-76010805D02*
X152884690Y-75986995D01*
X152884690Y-75986995D02*
X152837071Y-75963186D01*
X152837071Y-75963186D02*
X152694214Y-75963186D01*
X152694214Y-75963186D02*
X152646595Y-75986995D01*
X152646595Y-75986995D02*
X152622785Y-76010805D01*
X152622785Y-76010805D02*
X152598976Y-76058424D01*
X152598976Y-76058424D02*
X152598976Y-76129852D01*
X152598976Y-76129852D02*
X152622785Y-76177471D01*
X152622785Y-76177471D02*
X152646595Y-76201281D01*
X152646595Y-76201281D02*
X152694214Y-76225090D01*
X152694214Y-76225090D02*
X152837071Y-76225090D01*
X152837071Y-76225090D02*
X152884690Y-76201281D01*
X152884690Y-76201281D02*
X152908500Y-76177471D01*
X152908500Y-76177471D02*
X152932309Y-76129852D01*
X152932309Y-76129852D02*
X152932309Y-76058424D01*
X152598976Y-76367948D02*
X152598976Y-76558424D01*
X152932309Y-76439376D02*
X152503738Y-76439376D01*
X152503738Y-76439376D02*
X152456119Y-76463186D01*
X152456119Y-76463186D02*
X152432309Y-76510805D01*
X152432309Y-76510805D02*
X152432309Y-76558424D01*
X152908500Y-77082233D02*
X152932309Y-77129852D01*
X152932309Y-77129852D02*
X152932309Y-77225090D01*
X152932309Y-77225090D02*
X152908500Y-77272709D01*
X152908500Y-77272709D02*
X152860880Y-77296518D01*
X152860880Y-77296518D02*
X152837071Y-77296518D01*
X152837071Y-77296518D02*
X152789452Y-77272709D01*
X152789452Y-77272709D02*
X152765642Y-77225090D01*
X152765642Y-77225090D02*
X152765642Y-77153661D01*
X152765642Y-77153661D02*
X152741833Y-77106042D01*
X152741833Y-77106042D02*
X152694214Y-77082233D01*
X152694214Y-77082233D02*
X152670404Y-77082233D01*
X152670404Y-77082233D02*
X152622785Y-77106042D01*
X152622785Y-77106042D02*
X152598976Y-77153661D01*
X152598976Y-77153661D02*
X152598976Y-77225090D01*
X152598976Y-77225090D02*
X152622785Y-77272709D01*
X152598976Y-77463185D02*
X152932309Y-77558423D01*
X152932309Y-77558423D02*
X152694214Y-77653661D01*
X152694214Y-77653661D02*
X152932309Y-77748899D01*
X152932309Y-77748899D02*
X152598976Y-77844137D01*
X152908500Y-78225090D02*
X152932309Y-78177471D01*
X152932309Y-78177471D02*
X152932309Y-78082233D01*
X152932309Y-78082233D02*
X152908500Y-78034614D01*
X152908500Y-78034614D02*
X152860880Y-78010805D01*
X152860880Y-78010805D02*
X152670404Y-78010805D01*
X152670404Y-78010805D02*
X152622785Y-78034614D01*
X152622785Y-78034614D02*
X152598976Y-78082233D01*
X152598976Y-78082233D02*
X152598976Y-78177471D01*
X152598976Y-78177471D02*
X152622785Y-78225090D01*
X152622785Y-78225090D02*
X152670404Y-78248900D01*
X152670404Y-78248900D02*
X152718023Y-78248900D01*
X152718023Y-78248900D02*
X152765642Y-78010805D01*
X152932309Y-78677471D02*
X152670404Y-78677471D01*
X152670404Y-78677471D02*
X152622785Y-78653661D01*
X152622785Y-78653661D02*
X152598976Y-78606042D01*
X152598976Y-78606042D02*
X152598976Y-78510804D01*
X152598976Y-78510804D02*
X152622785Y-78463185D01*
X152908500Y-78677471D02*
X152932309Y-78629852D01*
X152932309Y-78629852D02*
X152932309Y-78510804D01*
X152932309Y-78510804D02*
X152908500Y-78463185D01*
X152908500Y-78463185D02*
X152860880Y-78439376D01*
X152860880Y-78439376D02*
X152813261Y-78439376D01*
X152813261Y-78439376D02*
X152765642Y-78463185D01*
X152765642Y-78463185D02*
X152741833Y-78510804D01*
X152741833Y-78510804D02*
X152741833Y-78629852D01*
X152741833Y-78629852D02*
X152718023Y-78677471D01*
X152932309Y-78915566D02*
X152598976Y-78915566D01*
X152694214Y-78915566D02*
X152646595Y-78939376D01*
X152646595Y-78939376D02*
X152622785Y-78963185D01*
X152622785Y-78963185D02*
X152598976Y-79010804D01*
X152598976Y-79010804D02*
X152598976Y-79058423D01*
X152932309Y-79225090D02*
X152598976Y-79225090D01*
X152432309Y-79225090D02*
X152456119Y-79201281D01*
X152456119Y-79201281D02*
X152479928Y-79225090D01*
X152479928Y-79225090D02*
X152456119Y-79248900D01*
X152456119Y-79248900D02*
X152432309Y-79225090D01*
X152432309Y-79225090D02*
X152479928Y-79225090D01*
X152598976Y-79463185D02*
X152932309Y-79463185D01*
X152646595Y-79463185D02*
X152622785Y-79486995D01*
X152622785Y-79486995D02*
X152598976Y-79534614D01*
X152598976Y-79534614D02*
X152598976Y-79606042D01*
X152598976Y-79606042D02*
X152622785Y-79653661D01*
X152622785Y-79653661D02*
X152670404Y-79677471D01*
X152670404Y-79677471D02*
X152932309Y-79677471D01*
X152598976Y-80129852D02*
X153003738Y-80129852D01*
X153003738Y-80129852D02*
X153051357Y-80106042D01*
X153051357Y-80106042D02*
X153075166Y-80082233D01*
X153075166Y-80082233D02*
X153098976Y-80034614D01*
X153098976Y-80034614D02*
X153098976Y-79963185D01*
X153098976Y-79963185D02*
X153075166Y-79915566D01*
X152908500Y-80129852D02*
X152932309Y-80082233D01*
X152932309Y-80082233D02*
X152932309Y-79986995D01*
X152932309Y-79986995D02*
X152908500Y-79939376D01*
X152908500Y-79939376D02*
X152884690Y-79915566D01*
X152884690Y-79915566D02*
X152837071Y-79891757D01*
X152837071Y-79891757D02*
X152694214Y-79891757D01*
X152694214Y-79891757D02*
X152646595Y-79915566D01*
X152646595Y-79915566D02*
X152622785Y-79939376D01*
X152622785Y-79939376D02*
X152598976Y-79986995D01*
X152598976Y-79986995D02*
X152598976Y-80082233D01*
X152598976Y-80082233D02*
X152622785Y-80129852D01*
X152598976Y-80677471D02*
X152598976Y-80867947D01*
X152432309Y-80748899D02*
X152860880Y-80748899D01*
X152860880Y-80748899D02*
X152908500Y-80772709D01*
X152908500Y-80772709D02*
X152932309Y-80820328D01*
X152932309Y-80820328D02*
X152932309Y-80867947D01*
X152932309Y-81034613D02*
X152432309Y-81034613D01*
X152932309Y-81248899D02*
X152670404Y-81248899D01*
X152670404Y-81248899D02*
X152622785Y-81225089D01*
X152622785Y-81225089D02*
X152598976Y-81177470D01*
X152598976Y-81177470D02*
X152598976Y-81106042D01*
X152598976Y-81106042D02*
X152622785Y-81058423D01*
X152622785Y-81058423D02*
X152646595Y-81034613D01*
X152932309Y-81701280D02*
X152670404Y-81701280D01*
X152670404Y-81701280D02*
X152622785Y-81677470D01*
X152622785Y-81677470D02*
X152598976Y-81629851D01*
X152598976Y-81629851D02*
X152598976Y-81534613D01*
X152598976Y-81534613D02*
X152622785Y-81486994D01*
X152908500Y-81701280D02*
X152932309Y-81653661D01*
X152932309Y-81653661D02*
X152932309Y-81534613D01*
X152932309Y-81534613D02*
X152908500Y-81486994D01*
X152908500Y-81486994D02*
X152860880Y-81463185D01*
X152860880Y-81463185D02*
X152813261Y-81463185D01*
X152813261Y-81463185D02*
X152765642Y-81486994D01*
X152765642Y-81486994D02*
X152741833Y-81534613D01*
X152741833Y-81534613D02*
X152741833Y-81653661D01*
X152741833Y-81653661D02*
X152718023Y-81701280D01*
X152598976Y-81867947D02*
X152598976Y-82058423D01*
X152432309Y-81939375D02*
X152860880Y-81939375D01*
X152860880Y-81939375D02*
X152908500Y-81963185D01*
X152908500Y-81963185D02*
X152932309Y-82010804D01*
X152932309Y-82010804D02*
X152932309Y-82058423D01*
X152932309Y-82606041D02*
X152598976Y-82606041D01*
X152432309Y-82606041D02*
X152456119Y-82582232D01*
X152456119Y-82582232D02*
X152479928Y-82606041D01*
X152479928Y-82606041D02*
X152456119Y-82629851D01*
X152456119Y-82629851D02*
X152432309Y-82606041D01*
X152432309Y-82606041D02*
X152479928Y-82606041D01*
X152908500Y-82820327D02*
X152932309Y-82867946D01*
X152932309Y-82867946D02*
X152932309Y-82963184D01*
X152932309Y-82963184D02*
X152908500Y-83010803D01*
X152908500Y-83010803D02*
X152860880Y-83034612D01*
X152860880Y-83034612D02*
X152837071Y-83034612D01*
X152837071Y-83034612D02*
X152789452Y-83010803D01*
X152789452Y-83010803D02*
X152765642Y-82963184D01*
X152765642Y-82963184D02*
X152765642Y-82891755D01*
X152765642Y-82891755D02*
X152741833Y-82844136D01*
X152741833Y-82844136D02*
X152694214Y-82820327D01*
X152694214Y-82820327D02*
X152670404Y-82820327D01*
X152670404Y-82820327D02*
X152622785Y-82844136D01*
X152622785Y-82844136D02*
X152598976Y-82891755D01*
X152598976Y-82891755D02*
X152598976Y-82963184D01*
X152598976Y-82963184D02*
X152622785Y-83010803D01*
X153122785Y-83201279D02*
X153098976Y-83225089D01*
X153098976Y-83225089D02*
X153027547Y-83272708D01*
X153027547Y-83272708D02*
X152979928Y-83296517D01*
X152979928Y-83296517D02*
X152908500Y-83320327D01*
X152908500Y-83320327D02*
X152789452Y-83344136D01*
X152789452Y-83344136D02*
X152694214Y-83344136D01*
X152694214Y-83344136D02*
X152575166Y-83320327D01*
X152575166Y-83320327D02*
X152503738Y-83296517D01*
X152503738Y-83296517D02*
X152456119Y-83272708D01*
X152456119Y-83272708D02*
X152384690Y-83225089D01*
X152384690Y-83225089D02*
X152360880Y-83201279D01*
X155408500Y-67177474D02*
X155432309Y-67248902D01*
X155432309Y-67248902D02*
X155432309Y-67367950D01*
X155432309Y-67367950D02*
X155408500Y-67415569D01*
X155408500Y-67415569D02*
X155384690Y-67439378D01*
X155384690Y-67439378D02*
X155337071Y-67463188D01*
X155337071Y-67463188D02*
X155289452Y-67463188D01*
X155289452Y-67463188D02*
X155241833Y-67439378D01*
X155241833Y-67439378D02*
X155218023Y-67415569D01*
X155218023Y-67415569D02*
X155194214Y-67367950D01*
X155194214Y-67367950D02*
X155170404Y-67272712D01*
X155170404Y-67272712D02*
X155146595Y-67225093D01*
X155146595Y-67225093D02*
X155122785Y-67201283D01*
X155122785Y-67201283D02*
X155075166Y-67177474D01*
X155075166Y-67177474D02*
X155027547Y-67177474D01*
X155027547Y-67177474D02*
X154979928Y-67201283D01*
X154979928Y-67201283D02*
X154956119Y-67225093D01*
X154956119Y-67225093D02*
X154932309Y-67272712D01*
X154932309Y-67272712D02*
X154932309Y-67391759D01*
X154932309Y-67391759D02*
X154956119Y-67463188D01*
X155098976Y-67677473D02*
X155598976Y-67677473D01*
X155122785Y-67677473D02*
X155098976Y-67725092D01*
X155098976Y-67725092D02*
X155098976Y-67820330D01*
X155098976Y-67820330D02*
X155122785Y-67867949D01*
X155122785Y-67867949D02*
X155146595Y-67891759D01*
X155146595Y-67891759D02*
X155194214Y-67915568D01*
X155194214Y-67915568D02*
X155337071Y-67915568D01*
X155337071Y-67915568D02*
X155384690Y-67891759D01*
X155384690Y-67891759D02*
X155408500Y-67867949D01*
X155408500Y-67867949D02*
X155432309Y-67820330D01*
X155432309Y-67820330D02*
X155432309Y-67725092D01*
X155432309Y-67725092D02*
X155408500Y-67677473D01*
X155408500Y-68320330D02*
X155432309Y-68272711D01*
X155432309Y-68272711D02*
X155432309Y-68177473D01*
X155432309Y-68177473D02*
X155408500Y-68129854D01*
X155408500Y-68129854D02*
X155360880Y-68106045D01*
X155360880Y-68106045D02*
X155170404Y-68106045D01*
X155170404Y-68106045D02*
X155122785Y-68129854D01*
X155122785Y-68129854D02*
X155098976Y-68177473D01*
X155098976Y-68177473D02*
X155098976Y-68272711D01*
X155098976Y-68272711D02*
X155122785Y-68320330D01*
X155122785Y-68320330D02*
X155170404Y-68344140D01*
X155170404Y-68344140D02*
X155218023Y-68344140D01*
X155218023Y-68344140D02*
X155265642Y-68106045D01*
X155408500Y-68772711D02*
X155432309Y-68725092D01*
X155432309Y-68725092D02*
X155432309Y-68629854D01*
X155432309Y-68629854D02*
X155408500Y-68582235D01*
X155408500Y-68582235D02*
X155384690Y-68558425D01*
X155384690Y-68558425D02*
X155337071Y-68534616D01*
X155337071Y-68534616D02*
X155194214Y-68534616D01*
X155194214Y-68534616D02*
X155146595Y-68558425D01*
X155146595Y-68558425D02*
X155122785Y-68582235D01*
X155122785Y-68582235D02*
X155098976Y-68629854D01*
X155098976Y-68629854D02*
X155098976Y-68725092D01*
X155098976Y-68725092D02*
X155122785Y-68772711D01*
X155432309Y-68986996D02*
X155098976Y-68986996D01*
X154932309Y-68986996D02*
X154956119Y-68963187D01*
X154956119Y-68963187D02*
X154979928Y-68986996D01*
X154979928Y-68986996D02*
X154956119Y-69010806D01*
X154956119Y-69010806D02*
X154932309Y-68986996D01*
X154932309Y-68986996D02*
X154979928Y-68986996D01*
X155432309Y-69439377D02*
X155170404Y-69439377D01*
X155170404Y-69439377D02*
X155122785Y-69415567D01*
X155122785Y-69415567D02*
X155098976Y-69367948D01*
X155098976Y-69367948D02*
X155098976Y-69272710D01*
X155098976Y-69272710D02*
X155122785Y-69225091D01*
X155408500Y-69439377D02*
X155432309Y-69391758D01*
X155432309Y-69391758D02*
X155432309Y-69272710D01*
X155432309Y-69272710D02*
X155408500Y-69225091D01*
X155408500Y-69225091D02*
X155360880Y-69201282D01*
X155360880Y-69201282D02*
X155313261Y-69201282D01*
X155313261Y-69201282D02*
X155265642Y-69225091D01*
X155265642Y-69225091D02*
X155241833Y-69272710D01*
X155241833Y-69272710D02*
X155241833Y-69391758D01*
X155241833Y-69391758D02*
X155218023Y-69439377D01*
X155432309Y-69748901D02*
X155408500Y-69701282D01*
X155408500Y-69701282D02*
X155360880Y-69677472D01*
X155360880Y-69677472D02*
X154932309Y-69677472D01*
X155098976Y-70248901D02*
X155098976Y-70439377D01*
X154932309Y-70320329D02*
X155360880Y-70320329D01*
X155360880Y-70320329D02*
X155408500Y-70344139D01*
X155408500Y-70344139D02*
X155432309Y-70391758D01*
X155432309Y-70391758D02*
X155432309Y-70439377D01*
X155432309Y-70606043D02*
X154932309Y-70606043D01*
X155432309Y-70820329D02*
X155170404Y-70820329D01*
X155170404Y-70820329D02*
X155122785Y-70796519D01*
X155122785Y-70796519D02*
X155098976Y-70748900D01*
X155098976Y-70748900D02*
X155098976Y-70677472D01*
X155098976Y-70677472D02*
X155122785Y-70629853D01*
X155122785Y-70629853D02*
X155146595Y-70606043D01*
X155432309Y-71272710D02*
X155170404Y-71272710D01*
X155170404Y-71272710D02*
X155122785Y-71248900D01*
X155122785Y-71248900D02*
X155098976Y-71201281D01*
X155098976Y-71201281D02*
X155098976Y-71106043D01*
X155098976Y-71106043D02*
X155122785Y-71058424D01*
X155408500Y-71272710D02*
X155432309Y-71225091D01*
X155432309Y-71225091D02*
X155432309Y-71106043D01*
X155432309Y-71106043D02*
X155408500Y-71058424D01*
X155408500Y-71058424D02*
X155360880Y-71034615D01*
X155360880Y-71034615D02*
X155313261Y-71034615D01*
X155313261Y-71034615D02*
X155265642Y-71058424D01*
X155265642Y-71058424D02*
X155241833Y-71106043D01*
X155241833Y-71106043D02*
X155241833Y-71225091D01*
X155241833Y-71225091D02*
X155218023Y-71272710D01*
X155098976Y-71510805D02*
X155432309Y-71510805D01*
X155146595Y-71510805D02*
X155122785Y-71534615D01*
X155122785Y-71534615D02*
X155098976Y-71582234D01*
X155098976Y-71582234D02*
X155098976Y-71653662D01*
X155098976Y-71653662D02*
X155122785Y-71701281D01*
X155122785Y-71701281D02*
X155170404Y-71725091D01*
X155170404Y-71725091D02*
X155432309Y-71725091D01*
X155432309Y-71963186D02*
X154932309Y-71963186D01*
X155241833Y-72010805D02*
X155432309Y-72153662D01*
X155098976Y-72153662D02*
X155289452Y-71963186D01*
X155408500Y-72344139D02*
X155432309Y-72391758D01*
X155432309Y-72391758D02*
X155432309Y-72486996D01*
X155432309Y-72486996D02*
X155408500Y-72534615D01*
X155408500Y-72534615D02*
X155360880Y-72558424D01*
X155360880Y-72558424D02*
X155337071Y-72558424D01*
X155337071Y-72558424D02*
X155289452Y-72534615D01*
X155289452Y-72534615D02*
X155265642Y-72486996D01*
X155265642Y-72486996D02*
X155265642Y-72415567D01*
X155265642Y-72415567D02*
X155241833Y-72367948D01*
X155241833Y-72367948D02*
X155194214Y-72344139D01*
X155194214Y-72344139D02*
X155170404Y-72344139D01*
X155170404Y-72344139D02*
X155122785Y-72367948D01*
X155122785Y-72367948D02*
X155098976Y-72415567D01*
X155098976Y-72415567D02*
X155098976Y-72486996D01*
X155098976Y-72486996D02*
X155122785Y-72534615D01*
X155098976Y-73082234D02*
X155098976Y-73272710D01*
X154932309Y-73153662D02*
X155360880Y-73153662D01*
X155360880Y-73153662D02*
X155408500Y-73177472D01*
X155408500Y-73177472D02*
X155432309Y-73225091D01*
X155432309Y-73225091D02*
X155432309Y-73272710D01*
X155432309Y-73510805D02*
X155408500Y-73463186D01*
X155408500Y-73463186D02*
X155384690Y-73439376D01*
X155384690Y-73439376D02*
X155337071Y-73415567D01*
X155337071Y-73415567D02*
X155194214Y-73415567D01*
X155194214Y-73415567D02*
X155146595Y-73439376D01*
X155146595Y-73439376D02*
X155122785Y-73463186D01*
X155122785Y-73463186D02*
X155098976Y-73510805D01*
X155098976Y-73510805D02*
X155098976Y-73582233D01*
X155098976Y-73582233D02*
X155122785Y-73629852D01*
X155122785Y-73629852D02*
X155146595Y-73653662D01*
X155146595Y-73653662D02*
X155194214Y-73677471D01*
X155194214Y-73677471D02*
X155337071Y-73677471D01*
X155337071Y-73677471D02*
X155384690Y-73653662D01*
X155384690Y-73653662D02*
X155408500Y-73629852D01*
X155408500Y-73629852D02*
X155432309Y-73582233D01*
X155432309Y-73582233D02*
X155432309Y-73510805D01*
X155384690Y-74558423D02*
X155408500Y-74534614D01*
X155408500Y-74534614D02*
X155432309Y-74463185D01*
X155432309Y-74463185D02*
X155432309Y-74415566D01*
X155432309Y-74415566D02*
X155408500Y-74344138D01*
X155408500Y-74344138D02*
X155360880Y-74296519D01*
X155360880Y-74296519D02*
X155313261Y-74272709D01*
X155313261Y-74272709D02*
X155218023Y-74248900D01*
X155218023Y-74248900D02*
X155146595Y-74248900D01*
X155146595Y-74248900D02*
X155051357Y-74272709D01*
X155051357Y-74272709D02*
X155003738Y-74296519D01*
X155003738Y-74296519D02*
X154956119Y-74344138D01*
X154956119Y-74344138D02*
X154932309Y-74415566D01*
X154932309Y-74415566D02*
X154932309Y-74463185D01*
X154932309Y-74463185D02*
X154956119Y-74534614D01*
X154956119Y-74534614D02*
X154979928Y-74558423D01*
X155432309Y-74772709D02*
X154932309Y-74772709D01*
X155432309Y-74986995D02*
X155170404Y-74986995D01*
X155170404Y-74986995D02*
X155122785Y-74963185D01*
X155122785Y-74963185D02*
X155098976Y-74915566D01*
X155098976Y-74915566D02*
X155098976Y-74844138D01*
X155098976Y-74844138D02*
X155122785Y-74796519D01*
X155122785Y-74796519D02*
X155146595Y-74772709D01*
X155432309Y-75439376D02*
X155170404Y-75439376D01*
X155170404Y-75439376D02*
X155122785Y-75415566D01*
X155122785Y-75415566D02*
X155098976Y-75367947D01*
X155098976Y-75367947D02*
X155098976Y-75272709D01*
X155098976Y-75272709D02*
X155122785Y-75225090D01*
X155408500Y-75439376D02*
X155432309Y-75391757D01*
X155432309Y-75391757D02*
X155432309Y-75272709D01*
X155432309Y-75272709D02*
X155408500Y-75225090D01*
X155408500Y-75225090D02*
X155360880Y-75201281D01*
X155360880Y-75201281D02*
X155313261Y-75201281D01*
X155313261Y-75201281D02*
X155265642Y-75225090D01*
X155265642Y-75225090D02*
X155241833Y-75272709D01*
X155241833Y-75272709D02*
X155241833Y-75391757D01*
X155241833Y-75391757D02*
X155218023Y-75439376D01*
X155098976Y-75606043D02*
X155098976Y-75796519D01*
X154932309Y-75677471D02*
X155360880Y-75677471D01*
X155360880Y-75677471D02*
X155408500Y-75701281D01*
X155408500Y-75701281D02*
X155432309Y-75748900D01*
X155432309Y-75748900D02*
X155432309Y-75796519D01*
X154956119Y-76225090D02*
X154932309Y-76177471D01*
X154932309Y-76177471D02*
X154932309Y-76106042D01*
X154932309Y-76106042D02*
X154956119Y-76034614D01*
X154956119Y-76034614D02*
X155003738Y-75986995D01*
X155003738Y-75986995D02*
X155051357Y-75963185D01*
X155051357Y-75963185D02*
X155146595Y-75939376D01*
X155146595Y-75939376D02*
X155218023Y-75939376D01*
X155218023Y-75939376D02*
X155313261Y-75963185D01*
X155313261Y-75963185D02*
X155360880Y-75986995D01*
X155360880Y-75986995D02*
X155408500Y-76034614D01*
X155408500Y-76034614D02*
X155432309Y-76106042D01*
X155432309Y-76106042D02*
X155432309Y-76153661D01*
X155432309Y-76153661D02*
X155408500Y-76225090D01*
X155408500Y-76225090D02*
X155384690Y-76248899D01*
X155384690Y-76248899D02*
X155218023Y-76248899D01*
X155218023Y-76248899D02*
X155218023Y-76153661D01*
X155432309Y-76463185D02*
X154932309Y-76463185D01*
X154932309Y-76463185D02*
X154932309Y-76653661D01*
X154932309Y-76653661D02*
X154956119Y-76701280D01*
X154956119Y-76701280D02*
X154979928Y-76725090D01*
X154979928Y-76725090D02*
X155027547Y-76748899D01*
X155027547Y-76748899D02*
X155098976Y-76748899D01*
X155098976Y-76748899D02*
X155146595Y-76725090D01*
X155146595Y-76725090D02*
X155170404Y-76701280D01*
X155170404Y-76701280D02*
X155194214Y-76653661D01*
X155194214Y-76653661D02*
X155194214Y-76463185D01*
X154932309Y-76891757D02*
X154932309Y-77177471D01*
X155432309Y-77034614D02*
X154932309Y-77034614D01*
X155432309Y-77796518D02*
X155408500Y-77748899D01*
X155408500Y-77748899D02*
X155384690Y-77725089D01*
X155384690Y-77725089D02*
X155337071Y-77701280D01*
X155337071Y-77701280D02*
X155194214Y-77701280D01*
X155194214Y-77701280D02*
X155146595Y-77725089D01*
X155146595Y-77725089D02*
X155122785Y-77748899D01*
X155122785Y-77748899D02*
X155098976Y-77796518D01*
X155098976Y-77796518D02*
X155098976Y-77867946D01*
X155098976Y-77867946D02*
X155122785Y-77915565D01*
X155122785Y-77915565D02*
X155146595Y-77939375D01*
X155146595Y-77939375D02*
X155194214Y-77963184D01*
X155194214Y-77963184D02*
X155337071Y-77963184D01*
X155337071Y-77963184D02*
X155384690Y-77939375D01*
X155384690Y-77939375D02*
X155408500Y-77915565D01*
X155408500Y-77915565D02*
X155432309Y-77867946D01*
X155432309Y-77867946D02*
X155432309Y-77796518D01*
X155098976Y-78106042D02*
X155098976Y-78296518D01*
X155432309Y-78177470D02*
X155003738Y-78177470D01*
X155003738Y-78177470D02*
X154956119Y-78201280D01*
X154956119Y-78201280D02*
X154932309Y-78248899D01*
X154932309Y-78248899D02*
X154932309Y-78296518D01*
X154932309Y-78939374D02*
X154932309Y-79034612D01*
X154932309Y-79034612D02*
X154956119Y-79082231D01*
X154956119Y-79082231D02*
X155003738Y-79129850D01*
X155003738Y-79129850D02*
X155098976Y-79153660D01*
X155098976Y-79153660D02*
X155265642Y-79153660D01*
X155265642Y-79153660D02*
X155360880Y-79129850D01*
X155360880Y-79129850D02*
X155408500Y-79082231D01*
X155408500Y-79082231D02*
X155432309Y-79034612D01*
X155432309Y-79034612D02*
X155432309Y-78939374D01*
X155432309Y-78939374D02*
X155408500Y-78891755D01*
X155408500Y-78891755D02*
X155360880Y-78844136D01*
X155360880Y-78844136D02*
X155265642Y-78820327D01*
X155265642Y-78820327D02*
X155098976Y-78820327D01*
X155098976Y-78820327D02*
X155003738Y-78844136D01*
X155003738Y-78844136D02*
X154956119Y-78891755D01*
X154956119Y-78891755D02*
X154932309Y-78939374D01*
X155098976Y-79367946D02*
X155598976Y-79367946D01*
X155122785Y-79367946D02*
X155098976Y-79415565D01*
X155098976Y-79415565D02*
X155098976Y-79510803D01*
X155098976Y-79510803D02*
X155122785Y-79558422D01*
X155122785Y-79558422D02*
X155146595Y-79582232D01*
X155146595Y-79582232D02*
X155194214Y-79606041D01*
X155194214Y-79606041D02*
X155337071Y-79606041D01*
X155337071Y-79606041D02*
X155384690Y-79582232D01*
X155384690Y-79582232D02*
X155408500Y-79558422D01*
X155408500Y-79558422D02*
X155432309Y-79510803D01*
X155432309Y-79510803D02*
X155432309Y-79415565D01*
X155432309Y-79415565D02*
X155408500Y-79367946D01*
X155408500Y-80010803D02*
X155432309Y-79963184D01*
X155432309Y-79963184D02*
X155432309Y-79867946D01*
X155432309Y-79867946D02*
X155408500Y-79820327D01*
X155408500Y-79820327D02*
X155360880Y-79796518D01*
X155360880Y-79796518D02*
X155170404Y-79796518D01*
X155170404Y-79796518D02*
X155122785Y-79820327D01*
X155122785Y-79820327D02*
X155098976Y-79867946D01*
X155098976Y-79867946D02*
X155098976Y-79963184D01*
X155098976Y-79963184D02*
X155122785Y-80010803D01*
X155122785Y-80010803D02*
X155170404Y-80034613D01*
X155170404Y-80034613D02*
X155218023Y-80034613D01*
X155218023Y-80034613D02*
X155265642Y-79796518D01*
X155098976Y-80248898D02*
X155432309Y-80248898D01*
X155146595Y-80248898D02*
X155122785Y-80272708D01*
X155122785Y-80272708D02*
X155098976Y-80320327D01*
X155098976Y-80320327D02*
X155098976Y-80391755D01*
X155098976Y-80391755D02*
X155122785Y-80439374D01*
X155122785Y-80439374D02*
X155170404Y-80463184D01*
X155170404Y-80463184D02*
X155432309Y-80463184D01*
X155289452Y-80677470D02*
X155289452Y-80915565D01*
X155432309Y-80629851D02*
X154932309Y-80796517D01*
X154932309Y-80796517D02*
X155432309Y-80963184D01*
X155432309Y-81129850D02*
X154932309Y-81129850D01*
X155408500Y-81391755D02*
X155432309Y-81391755D01*
X155432309Y-81391755D02*
X155479928Y-81367945D01*
X155479928Y-81367945D02*
X155503738Y-81344136D01*
X155432309Y-81986992D02*
X154932309Y-81986992D01*
X155170404Y-81986992D02*
X155170404Y-82272706D01*
X155432309Y-82272706D02*
X154932309Y-82272706D01*
X155432309Y-82725088D02*
X155170404Y-82725088D01*
X155170404Y-82725088D02*
X155122785Y-82701278D01*
X155122785Y-82701278D02*
X155098976Y-82653659D01*
X155098976Y-82653659D02*
X155098976Y-82558421D01*
X155098976Y-82558421D02*
X155122785Y-82510802D01*
X155408500Y-82725088D02*
X155432309Y-82677469D01*
X155432309Y-82677469D02*
X155432309Y-82558421D01*
X155432309Y-82558421D02*
X155408500Y-82510802D01*
X155408500Y-82510802D02*
X155360880Y-82486993D01*
X155360880Y-82486993D02*
X155313261Y-82486993D01*
X155313261Y-82486993D02*
X155265642Y-82510802D01*
X155265642Y-82510802D02*
X155241833Y-82558421D01*
X155241833Y-82558421D02*
X155241833Y-82677469D01*
X155241833Y-82677469D02*
X155218023Y-82725088D01*
X155408500Y-83177469D02*
X155432309Y-83129850D01*
X155432309Y-83129850D02*
X155432309Y-83034612D01*
X155432309Y-83034612D02*
X155408500Y-82986993D01*
X155408500Y-82986993D02*
X155384690Y-82963183D01*
X155384690Y-82963183D02*
X155337071Y-82939374D01*
X155337071Y-82939374D02*
X155194214Y-82939374D01*
X155194214Y-82939374D02*
X155146595Y-82963183D01*
X155146595Y-82963183D02*
X155122785Y-82986993D01*
X155122785Y-82986993D02*
X155098976Y-83034612D01*
X155098976Y-83034612D02*
X155098976Y-83129850D01*
X155098976Y-83129850D02*
X155122785Y-83177469D01*
X155432309Y-83391754D02*
X154932309Y-83391754D01*
X155241833Y-83439373D02*
X155432309Y-83582230D01*
X155098976Y-83582230D02*
X155289452Y-83391754D01*
X155384690Y-84082230D02*
X155408500Y-84058421D01*
X155408500Y-84058421D02*
X155432309Y-83986992D01*
X155432309Y-83986992D02*
X155432309Y-83939373D01*
X155432309Y-83939373D02*
X155408500Y-83867945D01*
X155408500Y-83867945D02*
X155360880Y-83820326D01*
X155360880Y-83820326D02*
X155313261Y-83796516D01*
X155313261Y-83796516D02*
X155218023Y-83772707D01*
X155218023Y-83772707D02*
X155146595Y-83772707D01*
X155146595Y-83772707D02*
X155051357Y-83796516D01*
X155051357Y-83796516D02*
X155003738Y-83820326D01*
X155003738Y-83820326D02*
X154956119Y-83867945D01*
X154956119Y-83867945D02*
X154932309Y-83939373D01*
X154932309Y-83939373D02*
X154932309Y-83986992D01*
X154932309Y-83986992D02*
X154956119Y-84058421D01*
X154956119Y-84058421D02*
X154979928Y-84082230D01*
X155432309Y-84367945D02*
X155408500Y-84320326D01*
X155408500Y-84320326D02*
X155360880Y-84296516D01*
X155360880Y-84296516D02*
X154932309Y-84296516D01*
X155098976Y-84772707D02*
X155432309Y-84772707D01*
X155098976Y-84558421D02*
X155360880Y-84558421D01*
X155360880Y-84558421D02*
X155408500Y-84582231D01*
X155408500Y-84582231D02*
X155432309Y-84629850D01*
X155432309Y-84629850D02*
X155432309Y-84701278D01*
X155432309Y-84701278D02*
X155408500Y-84748897D01*
X155408500Y-84748897D02*
X155384690Y-84772707D01*
X155432309Y-85010802D02*
X154932309Y-85010802D01*
X155122785Y-85010802D02*
X155098976Y-85058421D01*
X155098976Y-85058421D02*
X155098976Y-85153659D01*
X155098976Y-85153659D02*
X155122785Y-85201278D01*
X155122785Y-85201278D02*
X155146595Y-85225088D01*
X155146595Y-85225088D02*
X155194214Y-85248897D01*
X155194214Y-85248897D02*
X155337071Y-85248897D01*
X155337071Y-85248897D02*
X155384690Y-85225088D01*
X155384690Y-85225088D02*
X155408500Y-85201278D01*
X155408500Y-85201278D02*
X155432309Y-85153659D01*
X155432309Y-85153659D02*
X155432309Y-85058421D01*
X155432309Y-85058421D02*
X155408500Y-85010802D01*
X155432309Y-86058421D02*
X155170404Y-86058421D01*
X155170404Y-86058421D02*
X155122785Y-86034611D01*
X155122785Y-86034611D02*
X155098976Y-85986992D01*
X155098976Y-85986992D02*
X155098976Y-85891754D01*
X155098976Y-85891754D02*
X155122785Y-85844135D01*
X155408500Y-86058421D02*
X155432309Y-86010802D01*
X155432309Y-86010802D02*
X155432309Y-85891754D01*
X155432309Y-85891754D02*
X155408500Y-85844135D01*
X155408500Y-85844135D02*
X155360880Y-85820326D01*
X155360880Y-85820326D02*
X155313261Y-85820326D01*
X155313261Y-85820326D02*
X155265642Y-85844135D01*
X155265642Y-85844135D02*
X155241833Y-85891754D01*
X155241833Y-85891754D02*
X155241833Y-86010802D01*
X155241833Y-86010802D02*
X155218023Y-86058421D01*
X155098976Y-86296516D02*
X155432309Y-86296516D01*
X155146595Y-86296516D02*
X155122785Y-86320326D01*
X155122785Y-86320326D02*
X155098976Y-86367945D01*
X155098976Y-86367945D02*
X155098976Y-86439373D01*
X155098976Y-86439373D02*
X155122785Y-86486992D01*
X155122785Y-86486992D02*
X155170404Y-86510802D01*
X155170404Y-86510802D02*
X155432309Y-86510802D01*
X155432309Y-86963183D02*
X154932309Y-86963183D01*
X155408500Y-86963183D02*
X155432309Y-86915564D01*
X155432309Y-86915564D02*
X155432309Y-86820326D01*
X155432309Y-86820326D02*
X155408500Y-86772707D01*
X155408500Y-86772707D02*
X155384690Y-86748897D01*
X155384690Y-86748897D02*
X155337071Y-86725088D01*
X155337071Y-86725088D02*
X155194214Y-86725088D01*
X155194214Y-86725088D02*
X155146595Y-86748897D01*
X155146595Y-86748897D02*
X155122785Y-86772707D01*
X155122785Y-86772707D02*
X155098976Y-86820326D01*
X155098976Y-86820326D02*
X155098976Y-86915564D01*
X155098976Y-86915564D02*
X155122785Y-86963183D01*
X155098976Y-87510802D02*
X155098976Y-87701278D01*
X154932309Y-87582230D02*
X155360880Y-87582230D01*
X155360880Y-87582230D02*
X155408500Y-87606040D01*
X155408500Y-87606040D02*
X155432309Y-87653659D01*
X155432309Y-87653659D02*
X155432309Y-87701278D01*
X155432309Y-87939373D02*
X155408500Y-87891754D01*
X155408500Y-87891754D02*
X155384690Y-87867944D01*
X155384690Y-87867944D02*
X155337071Y-87844135D01*
X155337071Y-87844135D02*
X155194214Y-87844135D01*
X155194214Y-87844135D02*
X155146595Y-87867944D01*
X155146595Y-87867944D02*
X155122785Y-87891754D01*
X155122785Y-87891754D02*
X155098976Y-87939373D01*
X155098976Y-87939373D02*
X155098976Y-88010801D01*
X155098976Y-88010801D02*
X155122785Y-88058420D01*
X155122785Y-88058420D02*
X155146595Y-88082230D01*
X155146595Y-88082230D02*
X155194214Y-88106039D01*
X155194214Y-88106039D02*
X155337071Y-88106039D01*
X155337071Y-88106039D02*
X155384690Y-88082230D01*
X155384690Y-88082230D02*
X155408500Y-88058420D01*
X155408500Y-88058420D02*
X155432309Y-88010801D01*
X155432309Y-88010801D02*
X155432309Y-87939373D01*
X155098976Y-88629849D02*
X155098976Y-88820325D01*
X154932309Y-88701277D02*
X155360880Y-88701277D01*
X155360880Y-88701277D02*
X155408500Y-88725087D01*
X155408500Y-88725087D02*
X155432309Y-88772706D01*
X155432309Y-88772706D02*
X155432309Y-88820325D01*
X155432309Y-88986991D02*
X154932309Y-88986991D01*
X155432309Y-89201277D02*
X155170404Y-89201277D01*
X155170404Y-89201277D02*
X155122785Y-89177467D01*
X155122785Y-89177467D02*
X155098976Y-89129848D01*
X155098976Y-89129848D02*
X155098976Y-89058420D01*
X155098976Y-89058420D02*
X155122785Y-89010801D01*
X155122785Y-89010801D02*
X155146595Y-88986991D01*
X155408500Y-89629848D02*
X155432309Y-89582229D01*
X155432309Y-89582229D02*
X155432309Y-89486991D01*
X155432309Y-89486991D02*
X155408500Y-89439372D01*
X155408500Y-89439372D02*
X155360880Y-89415563D01*
X155360880Y-89415563D02*
X155170404Y-89415563D01*
X155170404Y-89415563D02*
X155122785Y-89439372D01*
X155122785Y-89439372D02*
X155098976Y-89486991D01*
X155098976Y-89486991D02*
X155098976Y-89582229D01*
X155098976Y-89582229D02*
X155122785Y-89629848D01*
X155122785Y-89629848D02*
X155170404Y-89653658D01*
X155170404Y-89653658D02*
X155218023Y-89653658D01*
X155218023Y-89653658D02*
X155265642Y-89415563D01*
X155408500Y-90225086D02*
X155432309Y-90272705D01*
X155432309Y-90272705D02*
X155432309Y-90367943D01*
X155432309Y-90367943D02*
X155408500Y-90415562D01*
X155408500Y-90415562D02*
X155360880Y-90439371D01*
X155360880Y-90439371D02*
X155337071Y-90439371D01*
X155337071Y-90439371D02*
X155289452Y-90415562D01*
X155289452Y-90415562D02*
X155265642Y-90367943D01*
X155265642Y-90367943D02*
X155265642Y-90296514D01*
X155265642Y-90296514D02*
X155241833Y-90248895D01*
X155241833Y-90248895D02*
X155194214Y-90225086D01*
X155194214Y-90225086D02*
X155170404Y-90225086D01*
X155170404Y-90225086D02*
X155122785Y-90248895D01*
X155122785Y-90248895D02*
X155098976Y-90296514D01*
X155098976Y-90296514D02*
X155098976Y-90367943D01*
X155098976Y-90367943D02*
X155122785Y-90415562D01*
X155432309Y-90653657D02*
X155098976Y-90653657D01*
X154932309Y-90653657D02*
X154956119Y-90629848D01*
X154956119Y-90629848D02*
X154979928Y-90653657D01*
X154979928Y-90653657D02*
X154956119Y-90677467D01*
X154956119Y-90677467D02*
X154932309Y-90653657D01*
X154932309Y-90653657D02*
X154979928Y-90653657D01*
X155098976Y-90891752D02*
X155432309Y-90891752D01*
X155146595Y-90891752D02*
X155122785Y-90915562D01*
X155122785Y-90915562D02*
X155098976Y-90963181D01*
X155098976Y-90963181D02*
X155098976Y-91034609D01*
X155098976Y-91034609D02*
X155122785Y-91082228D01*
X155122785Y-91082228D02*
X155170404Y-91106038D01*
X155170404Y-91106038D02*
X155432309Y-91106038D01*
X155098976Y-91558419D02*
X155503738Y-91558419D01*
X155503738Y-91558419D02*
X155551357Y-91534609D01*
X155551357Y-91534609D02*
X155575166Y-91510800D01*
X155575166Y-91510800D02*
X155598976Y-91463181D01*
X155598976Y-91463181D02*
X155598976Y-91391752D01*
X155598976Y-91391752D02*
X155575166Y-91344133D01*
X155408500Y-91558419D02*
X155432309Y-91510800D01*
X155432309Y-91510800D02*
X155432309Y-91415562D01*
X155432309Y-91415562D02*
X155408500Y-91367943D01*
X155408500Y-91367943D02*
X155384690Y-91344133D01*
X155384690Y-91344133D02*
X155337071Y-91320324D01*
X155337071Y-91320324D02*
X155194214Y-91320324D01*
X155194214Y-91320324D02*
X155146595Y-91344133D01*
X155146595Y-91344133D02*
X155122785Y-91367943D01*
X155122785Y-91367943D02*
X155098976Y-91415562D01*
X155098976Y-91415562D02*
X155098976Y-91510800D01*
X155098976Y-91510800D02*
X155122785Y-91558419D01*
X155432309Y-91867943D02*
X155408500Y-91820324D01*
X155408500Y-91820324D02*
X155360880Y-91796514D01*
X155360880Y-91796514D02*
X154932309Y-91796514D01*
X155408500Y-92248895D02*
X155432309Y-92201276D01*
X155432309Y-92201276D02*
X155432309Y-92106038D01*
X155432309Y-92106038D02*
X155408500Y-92058419D01*
X155408500Y-92058419D02*
X155360880Y-92034610D01*
X155360880Y-92034610D02*
X155170404Y-92034610D01*
X155170404Y-92034610D02*
X155122785Y-92058419D01*
X155122785Y-92058419D02*
X155098976Y-92106038D01*
X155098976Y-92106038D02*
X155098976Y-92201276D01*
X155098976Y-92201276D02*
X155122785Y-92248895D01*
X155122785Y-92248895D02*
X155170404Y-92272705D01*
X155170404Y-92272705D02*
X155218023Y-92272705D01*
X155218023Y-92272705D02*
X155265642Y-92034610D01*
X155432309Y-92867942D02*
X155098976Y-92867942D01*
X155146595Y-92867942D02*
X155122785Y-92891752D01*
X155122785Y-92891752D02*
X155098976Y-92939371D01*
X155098976Y-92939371D02*
X155098976Y-93010799D01*
X155098976Y-93010799D02*
X155122785Y-93058418D01*
X155122785Y-93058418D02*
X155170404Y-93082228D01*
X155170404Y-93082228D02*
X155432309Y-93082228D01*
X155170404Y-93082228D02*
X155122785Y-93106037D01*
X155122785Y-93106037D02*
X155098976Y-93153656D01*
X155098976Y-93153656D02*
X155098976Y-93225085D01*
X155098976Y-93225085D02*
X155122785Y-93272704D01*
X155122785Y-93272704D02*
X155170404Y-93296514D01*
X155170404Y-93296514D02*
X155432309Y-93296514D01*
X155432309Y-93606038D02*
X155408500Y-93558419D01*
X155408500Y-93558419D02*
X155384690Y-93534609D01*
X155384690Y-93534609D02*
X155337071Y-93510800D01*
X155337071Y-93510800D02*
X155194214Y-93510800D01*
X155194214Y-93510800D02*
X155146595Y-93534609D01*
X155146595Y-93534609D02*
X155122785Y-93558419D01*
X155122785Y-93558419D02*
X155098976Y-93606038D01*
X155098976Y-93606038D02*
X155098976Y-93677466D01*
X155098976Y-93677466D02*
X155122785Y-93725085D01*
X155122785Y-93725085D02*
X155146595Y-93748895D01*
X155146595Y-93748895D02*
X155194214Y-93772704D01*
X155194214Y-93772704D02*
X155337071Y-93772704D01*
X155337071Y-93772704D02*
X155384690Y-93748895D01*
X155384690Y-93748895D02*
X155408500Y-93725085D01*
X155408500Y-93725085D02*
X155432309Y-93677466D01*
X155432309Y-93677466D02*
X155432309Y-93606038D01*
X155408500Y-93963181D02*
X155432309Y-94010800D01*
X155432309Y-94010800D02*
X155432309Y-94106038D01*
X155432309Y-94106038D02*
X155408500Y-94153657D01*
X155408500Y-94153657D02*
X155360880Y-94177466D01*
X155360880Y-94177466D02*
X155337071Y-94177466D01*
X155337071Y-94177466D02*
X155289452Y-94153657D01*
X155289452Y-94153657D02*
X155265642Y-94106038D01*
X155265642Y-94106038D02*
X155265642Y-94034609D01*
X155265642Y-94034609D02*
X155241833Y-93986990D01*
X155241833Y-93986990D02*
X155194214Y-93963181D01*
X155194214Y-93963181D02*
X155170404Y-93963181D01*
X155170404Y-93963181D02*
X155122785Y-93986990D01*
X155122785Y-93986990D02*
X155098976Y-94034609D01*
X155098976Y-94034609D02*
X155098976Y-94106038D01*
X155098976Y-94106038D02*
X155122785Y-94153657D01*
X155098976Y-94320324D02*
X155098976Y-94510800D01*
X154932309Y-94391752D02*
X155360880Y-94391752D01*
X155360880Y-94391752D02*
X155408500Y-94415562D01*
X155408500Y-94415562D02*
X155432309Y-94463181D01*
X155432309Y-94463181D02*
X155432309Y-94510800D01*
X156098976Y-67415569D02*
X156432309Y-67415569D01*
X156098976Y-67201283D02*
X156360880Y-67201283D01*
X156360880Y-67201283D02*
X156408500Y-67225093D01*
X156408500Y-67225093D02*
X156432309Y-67272712D01*
X156432309Y-67272712D02*
X156432309Y-67344140D01*
X156432309Y-67344140D02*
X156408500Y-67391759D01*
X156408500Y-67391759D02*
X156384690Y-67415569D01*
X156098976Y-67653664D02*
X156432309Y-67653664D01*
X156146595Y-67653664D02*
X156122785Y-67677474D01*
X156122785Y-67677474D02*
X156098976Y-67725093D01*
X156098976Y-67725093D02*
X156098976Y-67796521D01*
X156098976Y-67796521D02*
X156122785Y-67844140D01*
X156122785Y-67844140D02*
X156170404Y-67867950D01*
X156170404Y-67867950D02*
X156432309Y-67867950D01*
X156432309Y-68106045D02*
X155932309Y-68106045D01*
X156432309Y-68320331D02*
X156170404Y-68320331D01*
X156170404Y-68320331D02*
X156122785Y-68296521D01*
X156122785Y-68296521D02*
X156098976Y-68248902D01*
X156098976Y-68248902D02*
X156098976Y-68177474D01*
X156098976Y-68177474D02*
X156122785Y-68129855D01*
X156122785Y-68129855D02*
X156146595Y-68106045D01*
X156408500Y-68748902D02*
X156432309Y-68701283D01*
X156432309Y-68701283D02*
X156432309Y-68606045D01*
X156432309Y-68606045D02*
X156408500Y-68558426D01*
X156408500Y-68558426D02*
X156360880Y-68534617D01*
X156360880Y-68534617D02*
X156170404Y-68534617D01*
X156170404Y-68534617D02*
X156122785Y-68558426D01*
X156122785Y-68558426D02*
X156098976Y-68606045D01*
X156098976Y-68606045D02*
X156098976Y-68701283D01*
X156098976Y-68701283D02*
X156122785Y-68748902D01*
X156122785Y-68748902D02*
X156170404Y-68772712D01*
X156170404Y-68772712D02*
X156218023Y-68772712D01*
X156218023Y-68772712D02*
X156265642Y-68534617D01*
X156432309Y-69058426D02*
X156408500Y-69010807D01*
X156408500Y-69010807D02*
X156360880Y-68986997D01*
X156360880Y-68986997D02*
X155932309Y-68986997D01*
X156098976Y-69248902D02*
X156598976Y-69248902D01*
X156122785Y-69248902D02*
X156098976Y-69296521D01*
X156098976Y-69296521D02*
X156098976Y-69391759D01*
X156098976Y-69391759D02*
X156122785Y-69439378D01*
X156122785Y-69439378D02*
X156146595Y-69463188D01*
X156146595Y-69463188D02*
X156194214Y-69486997D01*
X156194214Y-69486997D02*
X156337071Y-69486997D01*
X156337071Y-69486997D02*
X156384690Y-69463188D01*
X156384690Y-69463188D02*
X156408500Y-69439378D01*
X156408500Y-69439378D02*
X156432309Y-69391759D01*
X156432309Y-69391759D02*
X156432309Y-69296521D01*
X156432309Y-69296521D02*
X156408500Y-69248902D01*
X156098976Y-69629855D02*
X156098976Y-69820331D01*
X156432309Y-69701283D02*
X156003738Y-69701283D01*
X156003738Y-69701283D02*
X155956119Y-69725093D01*
X155956119Y-69725093D02*
X155932309Y-69772712D01*
X155932309Y-69772712D02*
X155932309Y-69820331D01*
X156098976Y-70201283D02*
X156432309Y-70201283D01*
X156098976Y-69986997D02*
X156360880Y-69986997D01*
X156360880Y-69986997D02*
X156408500Y-70010807D01*
X156408500Y-70010807D02*
X156432309Y-70058426D01*
X156432309Y-70058426D02*
X156432309Y-70129854D01*
X156432309Y-70129854D02*
X156408500Y-70177473D01*
X156408500Y-70177473D02*
X156384690Y-70201283D01*
X156432309Y-70510807D02*
X156408500Y-70463188D01*
X156408500Y-70463188D02*
X156360880Y-70439378D01*
X156360880Y-70439378D02*
X155932309Y-70439378D01*
X156098976Y-71010807D02*
X156098976Y-71201283D01*
X155932309Y-71082235D02*
X156360880Y-71082235D01*
X156360880Y-71082235D02*
X156408500Y-71106045D01*
X156408500Y-71106045D02*
X156432309Y-71153664D01*
X156432309Y-71153664D02*
X156432309Y-71201283D01*
X156098976Y-71582235D02*
X156432309Y-71582235D01*
X156098976Y-71367949D02*
X156360880Y-71367949D01*
X156360880Y-71367949D02*
X156408500Y-71391759D01*
X156408500Y-71391759D02*
X156432309Y-71439378D01*
X156432309Y-71439378D02*
X156432309Y-71510806D01*
X156432309Y-71510806D02*
X156408500Y-71558425D01*
X156408500Y-71558425D02*
X156384690Y-71582235D01*
X156098976Y-71748902D02*
X156098976Y-71939378D01*
X155932309Y-71820330D02*
X156360880Y-71820330D01*
X156360880Y-71820330D02*
X156408500Y-71844140D01*
X156408500Y-71844140D02*
X156432309Y-71891759D01*
X156432309Y-71891759D02*
X156432309Y-71939378D01*
X156432309Y-72177473D02*
X156408500Y-72129854D01*
X156408500Y-72129854D02*
X156384690Y-72106044D01*
X156384690Y-72106044D02*
X156337071Y-72082235D01*
X156337071Y-72082235D02*
X156194214Y-72082235D01*
X156194214Y-72082235D02*
X156146595Y-72106044D01*
X156146595Y-72106044D02*
X156122785Y-72129854D01*
X156122785Y-72129854D02*
X156098976Y-72177473D01*
X156098976Y-72177473D02*
X156098976Y-72248901D01*
X156098976Y-72248901D02*
X156122785Y-72296520D01*
X156122785Y-72296520D02*
X156146595Y-72320330D01*
X156146595Y-72320330D02*
X156194214Y-72344139D01*
X156194214Y-72344139D02*
X156337071Y-72344139D01*
X156337071Y-72344139D02*
X156384690Y-72320330D01*
X156384690Y-72320330D02*
X156408500Y-72296520D01*
X156408500Y-72296520D02*
X156432309Y-72248901D01*
X156432309Y-72248901D02*
X156432309Y-72177473D01*
X156432309Y-72558425D02*
X156098976Y-72558425D01*
X156194214Y-72558425D02*
X156146595Y-72582235D01*
X156146595Y-72582235D02*
X156122785Y-72606044D01*
X156122785Y-72606044D02*
X156098976Y-72653663D01*
X156098976Y-72653663D02*
X156098976Y-72701282D01*
X156432309Y-72867949D02*
X156098976Y-72867949D01*
X155932309Y-72867949D02*
X155956119Y-72844140D01*
X155956119Y-72844140D02*
X155979928Y-72867949D01*
X155979928Y-72867949D02*
X155956119Y-72891759D01*
X155956119Y-72891759D02*
X155932309Y-72867949D01*
X155932309Y-72867949D02*
X155979928Y-72867949D01*
X156432309Y-73320330D02*
X156170404Y-73320330D01*
X156170404Y-73320330D02*
X156122785Y-73296520D01*
X156122785Y-73296520D02*
X156098976Y-73248901D01*
X156098976Y-73248901D02*
X156098976Y-73153663D01*
X156098976Y-73153663D02*
X156122785Y-73106044D01*
X156408500Y-73320330D02*
X156432309Y-73272711D01*
X156432309Y-73272711D02*
X156432309Y-73153663D01*
X156432309Y-73153663D02*
X156408500Y-73106044D01*
X156408500Y-73106044D02*
X156360880Y-73082235D01*
X156360880Y-73082235D02*
X156313261Y-73082235D01*
X156313261Y-73082235D02*
X156265642Y-73106044D01*
X156265642Y-73106044D02*
X156241833Y-73153663D01*
X156241833Y-73153663D02*
X156241833Y-73272711D01*
X156241833Y-73272711D02*
X156218023Y-73320330D01*
X156432309Y-73629854D02*
X156408500Y-73582235D01*
X156408500Y-73582235D02*
X156360880Y-73558425D01*
X156360880Y-73558425D02*
X155932309Y-73558425D01*
X156408500Y-74391758D02*
X156432309Y-74344139D01*
X156432309Y-74344139D02*
X156432309Y-74248901D01*
X156432309Y-74248901D02*
X156408500Y-74201282D01*
X156408500Y-74201282D02*
X156360880Y-74177473D01*
X156360880Y-74177473D02*
X156170404Y-74177473D01*
X156170404Y-74177473D02*
X156122785Y-74201282D01*
X156122785Y-74201282D02*
X156098976Y-74248901D01*
X156098976Y-74248901D02*
X156098976Y-74344139D01*
X156098976Y-74344139D02*
X156122785Y-74391758D01*
X156122785Y-74391758D02*
X156170404Y-74415568D01*
X156170404Y-74415568D02*
X156218023Y-74415568D01*
X156218023Y-74415568D02*
X156265642Y-74177473D01*
X156098976Y-74582234D02*
X156432309Y-74701282D01*
X156432309Y-74701282D02*
X156098976Y-74820329D01*
X156408500Y-75201281D02*
X156432309Y-75153662D01*
X156432309Y-75153662D02*
X156432309Y-75058424D01*
X156432309Y-75058424D02*
X156408500Y-75010805D01*
X156408500Y-75010805D02*
X156360880Y-74986996D01*
X156360880Y-74986996D02*
X156170404Y-74986996D01*
X156170404Y-74986996D02*
X156122785Y-75010805D01*
X156122785Y-75010805D02*
X156098976Y-75058424D01*
X156098976Y-75058424D02*
X156098976Y-75153662D01*
X156098976Y-75153662D02*
X156122785Y-75201281D01*
X156122785Y-75201281D02*
X156170404Y-75225091D01*
X156170404Y-75225091D02*
X156218023Y-75225091D01*
X156218023Y-75225091D02*
X156265642Y-74986996D01*
X156432309Y-75439376D02*
X156098976Y-75439376D01*
X156194214Y-75439376D02*
X156146595Y-75463186D01*
X156146595Y-75463186D02*
X156122785Y-75486995D01*
X156122785Y-75486995D02*
X156098976Y-75534614D01*
X156098976Y-75534614D02*
X156098976Y-75582233D01*
X156432309Y-76129852D02*
X155932309Y-76129852D01*
X156122785Y-76129852D02*
X156098976Y-76177471D01*
X156098976Y-76177471D02*
X156098976Y-76272709D01*
X156098976Y-76272709D02*
X156122785Y-76320328D01*
X156122785Y-76320328D02*
X156146595Y-76344138D01*
X156146595Y-76344138D02*
X156194214Y-76367947D01*
X156194214Y-76367947D02*
X156337071Y-76367947D01*
X156337071Y-76367947D02*
X156384690Y-76344138D01*
X156384690Y-76344138D02*
X156408500Y-76320328D01*
X156408500Y-76320328D02*
X156432309Y-76272709D01*
X156432309Y-76272709D02*
X156432309Y-76177471D01*
X156432309Y-76177471D02*
X156408500Y-76129852D01*
X156098976Y-76534614D02*
X156432309Y-76653662D01*
X156098976Y-76772709D02*
X156432309Y-76653662D01*
X156432309Y-76653662D02*
X156551357Y-76606043D01*
X156551357Y-76606043D02*
X156575166Y-76582233D01*
X156575166Y-76582233D02*
X156598976Y-76534614D01*
X156194214Y-77653661D02*
X156170404Y-77629851D01*
X156170404Y-77629851D02*
X156146595Y-77582232D01*
X156146595Y-77582232D02*
X156146595Y-77534613D01*
X156146595Y-77534613D02*
X156170404Y-77486994D01*
X156170404Y-77486994D02*
X156194214Y-77463185D01*
X156194214Y-77463185D02*
X156241833Y-77439375D01*
X156241833Y-77439375D02*
X156289452Y-77439375D01*
X156289452Y-77439375D02*
X156337071Y-77463185D01*
X156337071Y-77463185D02*
X156360880Y-77486994D01*
X156360880Y-77486994D02*
X156384690Y-77534613D01*
X156384690Y-77534613D02*
X156384690Y-77582232D01*
X156384690Y-77582232D02*
X156360880Y-77629851D01*
X156360880Y-77629851D02*
X156337071Y-77653661D01*
X156146595Y-77653661D02*
X156337071Y-77653661D01*
X156337071Y-77653661D02*
X156360880Y-77677470D01*
X156360880Y-77677470D02*
X156360880Y-77701280D01*
X156360880Y-77701280D02*
X156337071Y-77748899D01*
X156337071Y-77748899D02*
X156289452Y-77772709D01*
X156289452Y-77772709D02*
X156170404Y-77772709D01*
X156170404Y-77772709D02*
X156098976Y-77725090D01*
X156098976Y-77725090D02*
X156051357Y-77653661D01*
X156051357Y-77653661D02*
X156027547Y-77558423D01*
X156027547Y-77558423D02*
X156051357Y-77463185D01*
X156051357Y-77463185D02*
X156098976Y-77391756D01*
X156098976Y-77391756D02*
X156170404Y-77344137D01*
X156170404Y-77344137D02*
X156265642Y-77320328D01*
X156265642Y-77320328D02*
X156360880Y-77344137D01*
X156360880Y-77344137D02*
X156432309Y-77391756D01*
X156432309Y-77391756D02*
X156479928Y-77463185D01*
X156479928Y-77463185D02*
X156503738Y-77558423D01*
X156503738Y-77558423D02*
X156479928Y-77653661D01*
X156479928Y-77653661D02*
X156432309Y-77725090D01*
X156432309Y-77986994D02*
X155932309Y-77986994D01*
X156432309Y-78272708D02*
X156146595Y-78058423D01*
X155932309Y-78272708D02*
X156218023Y-77986994D01*
X156432309Y-78701280D02*
X156170404Y-78701280D01*
X156170404Y-78701280D02*
X156122785Y-78677470D01*
X156122785Y-78677470D02*
X156098976Y-78629851D01*
X156098976Y-78629851D02*
X156098976Y-78534613D01*
X156098976Y-78534613D02*
X156122785Y-78486994D01*
X156408500Y-78701280D02*
X156432309Y-78653661D01*
X156432309Y-78653661D02*
X156432309Y-78534613D01*
X156432309Y-78534613D02*
X156408500Y-78486994D01*
X156408500Y-78486994D02*
X156360880Y-78463185D01*
X156360880Y-78463185D02*
X156313261Y-78463185D01*
X156313261Y-78463185D02*
X156265642Y-78486994D01*
X156265642Y-78486994D02*
X156241833Y-78534613D01*
X156241833Y-78534613D02*
X156241833Y-78653661D01*
X156241833Y-78653661D02*
X156218023Y-78701280D01*
X156432309Y-78939375D02*
X156098976Y-78939375D01*
X155932309Y-78939375D02*
X155956119Y-78915566D01*
X155956119Y-78915566D02*
X155979928Y-78939375D01*
X155979928Y-78939375D02*
X155956119Y-78963185D01*
X155956119Y-78963185D02*
X155932309Y-78939375D01*
X155932309Y-78939375D02*
X155979928Y-78939375D01*
X156432309Y-79177470D02*
X155932309Y-79177470D01*
X155932309Y-79177470D02*
X155932309Y-79367946D01*
X155932309Y-79367946D02*
X155956119Y-79415565D01*
X155956119Y-79415565D02*
X155979928Y-79439375D01*
X155979928Y-79439375D02*
X156027547Y-79463184D01*
X156027547Y-79463184D02*
X156098976Y-79463184D01*
X156098976Y-79463184D02*
X156146595Y-79439375D01*
X156146595Y-79439375D02*
X156170404Y-79415565D01*
X156170404Y-79415565D02*
X156194214Y-79367946D01*
X156194214Y-79367946D02*
X156194214Y-79177470D01*
X156408500Y-79867946D02*
X156432309Y-79820327D01*
X156432309Y-79820327D02*
X156432309Y-79725089D01*
X156432309Y-79725089D02*
X156408500Y-79677470D01*
X156408500Y-79677470D02*
X156360880Y-79653661D01*
X156360880Y-79653661D02*
X156170404Y-79653661D01*
X156170404Y-79653661D02*
X156122785Y-79677470D01*
X156122785Y-79677470D02*
X156098976Y-79725089D01*
X156098976Y-79725089D02*
X156098976Y-79820327D01*
X156098976Y-79820327D02*
X156122785Y-79867946D01*
X156122785Y-79867946D02*
X156170404Y-79891756D01*
X156170404Y-79891756D02*
X156218023Y-79891756D01*
X156218023Y-79891756D02*
X156265642Y-79653661D01*
X156432309Y-80106041D02*
X156098976Y-80106041D01*
X156194214Y-80106041D02*
X156146595Y-80129851D01*
X156146595Y-80129851D02*
X156122785Y-80153660D01*
X156122785Y-80153660D02*
X156098976Y-80201279D01*
X156098976Y-80201279D02*
X156098976Y-80248898D01*
X156408500Y-80606041D02*
X156432309Y-80558422D01*
X156432309Y-80558422D02*
X156432309Y-80463184D01*
X156432309Y-80463184D02*
X156408500Y-80415565D01*
X156408500Y-80415565D02*
X156360880Y-80391756D01*
X156360880Y-80391756D02*
X156170404Y-80391756D01*
X156170404Y-80391756D02*
X156122785Y-80415565D01*
X156122785Y-80415565D02*
X156098976Y-80463184D01*
X156098976Y-80463184D02*
X156098976Y-80558422D01*
X156098976Y-80558422D02*
X156122785Y-80606041D01*
X156122785Y-80606041D02*
X156170404Y-80629851D01*
X156170404Y-80629851D02*
X156218023Y-80629851D01*
X156218023Y-80629851D02*
X156265642Y-80391756D01*
X156432309Y-80844136D02*
X156098976Y-80844136D01*
X155932309Y-80844136D02*
X155956119Y-80820327D01*
X155956119Y-80820327D02*
X155979928Y-80844136D01*
X155979928Y-80844136D02*
X155956119Y-80867946D01*
X155956119Y-80867946D02*
X155932309Y-80844136D01*
X155932309Y-80844136D02*
X155979928Y-80844136D01*
X156432309Y-81082231D02*
X156098976Y-81082231D01*
X156194214Y-81082231D02*
X156146595Y-81106041D01*
X156146595Y-81106041D02*
X156122785Y-81129850D01*
X156122785Y-81129850D02*
X156098976Y-81177469D01*
X156098976Y-81177469D02*
X156098976Y-81225088D01*
X156432309Y-81606041D02*
X156170404Y-81606041D01*
X156170404Y-81606041D02*
X156122785Y-81582231D01*
X156122785Y-81582231D02*
X156098976Y-81534612D01*
X156098976Y-81534612D02*
X156098976Y-81439374D01*
X156098976Y-81439374D02*
X156122785Y-81391755D01*
X156408500Y-81606041D02*
X156432309Y-81558422D01*
X156432309Y-81558422D02*
X156432309Y-81439374D01*
X156432309Y-81439374D02*
X156408500Y-81391755D01*
X156408500Y-81391755D02*
X156360880Y-81367946D01*
X156360880Y-81367946D02*
X156313261Y-81367946D01*
X156313261Y-81367946D02*
X156265642Y-81391755D01*
X156265642Y-81391755D02*
X156241833Y-81439374D01*
X156241833Y-81439374D02*
X156241833Y-81558422D01*
X156241833Y-81558422D02*
X156218023Y-81606041D01*
X156384690Y-81844136D02*
X156408500Y-81867946D01*
X156408500Y-81867946D02*
X156432309Y-81844136D01*
X156432309Y-81844136D02*
X156408500Y-81820327D01*
X156408500Y-81820327D02*
X156384690Y-81844136D01*
X156384690Y-81844136D02*
X156432309Y-81844136D01*
D12*
X142869819Y-67336779D02*
X141869819Y-67336779D01*
X141869819Y-67336779D02*
X142869819Y-67908207D01*
X142869819Y-67908207D02*
X141869819Y-67908207D01*
X142869819Y-68527255D02*
X142822200Y-68432017D01*
X142822200Y-68432017D02*
X142774580Y-68384398D01*
X142774580Y-68384398D02*
X142679342Y-68336779D01*
X142679342Y-68336779D02*
X142393628Y-68336779D01*
X142393628Y-68336779D02*
X142298390Y-68384398D01*
X142298390Y-68384398D02*
X142250771Y-68432017D01*
X142250771Y-68432017D02*
X142203152Y-68527255D01*
X142203152Y-68527255D02*
X142203152Y-68670112D01*
X142203152Y-68670112D02*
X142250771Y-68765350D01*
X142250771Y-68765350D02*
X142298390Y-68812969D01*
X142298390Y-68812969D02*
X142393628Y-68860588D01*
X142393628Y-68860588D02*
X142679342Y-68860588D01*
X142679342Y-68860588D02*
X142774580Y-68812969D01*
X142774580Y-68812969D02*
X142822200Y-68765350D01*
X142822200Y-68765350D02*
X142869819Y-68670112D01*
X142869819Y-68670112D02*
X142869819Y-68527255D01*
X142203152Y-69146303D02*
X142203152Y-69527255D01*
X141869819Y-69289160D02*
X142726961Y-69289160D01*
X142726961Y-69289160D02*
X142822200Y-69336779D01*
X142822200Y-69336779D02*
X142869819Y-69432017D01*
X142869819Y-69432017D02*
X142869819Y-69527255D01*
X142869819Y-69860589D02*
X141869819Y-69860589D01*
X142869819Y-70289160D02*
X142346009Y-70289160D01*
X142346009Y-70289160D02*
X142250771Y-70241541D01*
X142250771Y-70241541D02*
X142203152Y-70146303D01*
X142203152Y-70146303D02*
X142203152Y-70003446D01*
X142203152Y-70003446D02*
X142250771Y-69908208D01*
X142250771Y-69908208D02*
X142298390Y-69860589D01*
X142869819Y-70765351D02*
X142203152Y-70765351D01*
X141869819Y-70765351D02*
X141917438Y-70717732D01*
X141917438Y-70717732D02*
X141965057Y-70765351D01*
X141965057Y-70765351D02*
X141917438Y-70812970D01*
X141917438Y-70812970D02*
X141869819Y-70765351D01*
X141869819Y-70765351D02*
X141965057Y-70765351D01*
X142203152Y-71241541D02*
X142869819Y-71241541D01*
X142298390Y-71241541D02*
X142250771Y-71289160D01*
X142250771Y-71289160D02*
X142203152Y-71384398D01*
X142203152Y-71384398D02*
X142203152Y-71527255D01*
X142203152Y-71527255D02*
X142250771Y-71622493D01*
X142250771Y-71622493D02*
X142346009Y-71670112D01*
X142346009Y-71670112D02*
X142869819Y-71670112D01*
X142203152Y-72574874D02*
X143012676Y-72574874D01*
X143012676Y-72574874D02*
X143107914Y-72527255D01*
X143107914Y-72527255D02*
X143155533Y-72479636D01*
X143155533Y-72479636D02*
X143203152Y-72384398D01*
X143203152Y-72384398D02*
X143203152Y-72241541D01*
X143203152Y-72241541D02*
X143155533Y-72146303D01*
X142822200Y-72574874D02*
X142869819Y-72479636D01*
X142869819Y-72479636D02*
X142869819Y-72289160D01*
X142869819Y-72289160D02*
X142822200Y-72193922D01*
X142822200Y-72193922D02*
X142774580Y-72146303D01*
X142774580Y-72146303D02*
X142679342Y-72098684D01*
X142679342Y-72098684D02*
X142393628Y-72098684D01*
X142393628Y-72098684D02*
X142298390Y-72146303D01*
X142298390Y-72146303D02*
X142250771Y-72193922D01*
X142250771Y-72193922D02*
X142203152Y-72289160D01*
X142203152Y-72289160D02*
X142203152Y-72479636D01*
X142203152Y-72479636D02*
X142250771Y-72574874D01*
X142203152Y-73670113D02*
X142203152Y-74051065D01*
X141869819Y-73812970D02*
X142726961Y-73812970D01*
X142726961Y-73812970D02*
X142822200Y-73860589D01*
X142822200Y-73860589D02*
X142869819Y-73955827D01*
X142869819Y-73955827D02*
X142869819Y-74051065D01*
X142869819Y-74527256D02*
X142822200Y-74432018D01*
X142822200Y-74432018D02*
X142774580Y-74384399D01*
X142774580Y-74384399D02*
X142679342Y-74336780D01*
X142679342Y-74336780D02*
X142393628Y-74336780D01*
X142393628Y-74336780D02*
X142298390Y-74384399D01*
X142298390Y-74384399D02*
X142250771Y-74432018D01*
X142250771Y-74432018D02*
X142203152Y-74527256D01*
X142203152Y-74527256D02*
X142203152Y-74670113D01*
X142203152Y-74670113D02*
X142250771Y-74765351D01*
X142250771Y-74765351D02*
X142298390Y-74812970D01*
X142298390Y-74812970D02*
X142393628Y-74860589D01*
X142393628Y-74860589D02*
X142679342Y-74860589D01*
X142679342Y-74860589D02*
X142774580Y-74812970D01*
X142774580Y-74812970D02*
X142822200Y-74765351D01*
X142822200Y-74765351D02*
X142869819Y-74670113D01*
X142869819Y-74670113D02*
X142869819Y-74527256D01*
X142822200Y-76003447D02*
X142869819Y-76098685D01*
X142869819Y-76098685D02*
X142869819Y-76289161D01*
X142869819Y-76289161D02*
X142822200Y-76384399D01*
X142822200Y-76384399D02*
X142726961Y-76432018D01*
X142726961Y-76432018D02*
X142679342Y-76432018D01*
X142679342Y-76432018D02*
X142584104Y-76384399D01*
X142584104Y-76384399D02*
X142536485Y-76289161D01*
X142536485Y-76289161D02*
X142536485Y-76146304D01*
X142536485Y-76146304D02*
X142488866Y-76051066D01*
X142488866Y-76051066D02*
X142393628Y-76003447D01*
X142393628Y-76003447D02*
X142346009Y-76003447D01*
X142346009Y-76003447D02*
X142250771Y-76051066D01*
X142250771Y-76051066D02*
X142203152Y-76146304D01*
X142203152Y-76146304D02*
X142203152Y-76289161D01*
X142203152Y-76289161D02*
X142250771Y-76384399D01*
X142822200Y-77241542D02*
X142869819Y-77146304D01*
X142869819Y-77146304D02*
X142869819Y-76955828D01*
X142869819Y-76955828D02*
X142822200Y-76860590D01*
X142822200Y-76860590D02*
X142726961Y-76812971D01*
X142726961Y-76812971D02*
X142346009Y-76812971D01*
X142346009Y-76812971D02*
X142250771Y-76860590D01*
X142250771Y-76860590D02*
X142203152Y-76955828D01*
X142203152Y-76955828D02*
X142203152Y-77146304D01*
X142203152Y-77146304D02*
X142250771Y-77241542D01*
X142250771Y-77241542D02*
X142346009Y-77289161D01*
X142346009Y-77289161D02*
X142441247Y-77289161D01*
X142441247Y-77289161D02*
X142536485Y-76812971D01*
X142822200Y-78098685D02*
X142869819Y-78003447D01*
X142869819Y-78003447D02*
X142869819Y-77812971D01*
X142869819Y-77812971D02*
X142822200Y-77717733D01*
X142822200Y-77717733D02*
X142726961Y-77670114D01*
X142726961Y-77670114D02*
X142346009Y-77670114D01*
X142346009Y-77670114D02*
X142250771Y-77717733D01*
X142250771Y-77717733D02*
X142203152Y-77812971D01*
X142203152Y-77812971D02*
X142203152Y-78003447D01*
X142203152Y-78003447D02*
X142250771Y-78098685D01*
X142250771Y-78098685D02*
X142346009Y-78146304D01*
X142346009Y-78146304D02*
X142441247Y-78146304D01*
X142441247Y-78146304D02*
X142536485Y-77670114D01*
X142869819Y-79336781D02*
X141869819Y-79336781D01*
X142869819Y-79765352D02*
X142346009Y-79765352D01*
X142346009Y-79765352D02*
X142250771Y-79717733D01*
X142250771Y-79717733D02*
X142203152Y-79622495D01*
X142203152Y-79622495D02*
X142203152Y-79479638D01*
X142203152Y-79479638D02*
X142250771Y-79384400D01*
X142250771Y-79384400D02*
X142298390Y-79336781D01*
X142822200Y-80622495D02*
X142869819Y-80527257D01*
X142869819Y-80527257D02*
X142869819Y-80336781D01*
X142869819Y-80336781D02*
X142822200Y-80241543D01*
X142822200Y-80241543D02*
X142726961Y-80193924D01*
X142726961Y-80193924D02*
X142346009Y-80193924D01*
X142346009Y-80193924D02*
X142250771Y-80241543D01*
X142250771Y-80241543D02*
X142203152Y-80336781D01*
X142203152Y-80336781D02*
X142203152Y-80527257D01*
X142203152Y-80527257D02*
X142250771Y-80622495D01*
X142250771Y-80622495D02*
X142346009Y-80670114D01*
X142346009Y-80670114D02*
X142441247Y-80670114D01*
X142441247Y-80670114D02*
X142536485Y-80193924D01*
X142869819Y-81098686D02*
X142203152Y-81098686D01*
X142393628Y-81098686D02*
X142298390Y-81146305D01*
X142298390Y-81146305D02*
X142250771Y-81193924D01*
X142250771Y-81193924D02*
X142203152Y-81289162D01*
X142203152Y-81289162D02*
X142203152Y-81384400D01*
X142822200Y-82098686D02*
X142869819Y-82003448D01*
X142869819Y-82003448D02*
X142869819Y-81812972D01*
X142869819Y-81812972D02*
X142822200Y-81717734D01*
X142822200Y-81717734D02*
X142726961Y-81670115D01*
X142726961Y-81670115D02*
X142346009Y-81670115D01*
X142346009Y-81670115D02*
X142250771Y-81717734D01*
X142250771Y-81717734D02*
X142203152Y-81812972D01*
X142203152Y-81812972D02*
X142203152Y-82003448D01*
X142203152Y-82003448D02*
X142250771Y-82098686D01*
X142250771Y-82098686D02*
X142346009Y-82146305D01*
X142346009Y-82146305D02*
X142441247Y-82146305D01*
X142441247Y-82146305D02*
X142536485Y-81670115D01*
X142774580Y-82574877D02*
X142822200Y-82622496D01*
X142822200Y-82622496D02*
X142869819Y-82574877D01*
X142869819Y-82574877D02*
X142822200Y-82527258D01*
X142822200Y-82527258D02*
X142774580Y-82574877D01*
X142774580Y-82574877D02*
X142869819Y-82574877D01*
X142488866Y-82574877D02*
X141917438Y-82527258D01*
X141917438Y-82527258D02*
X141869819Y-82574877D01*
X141869819Y-82574877D02*
X141917438Y-82622496D01*
X141917438Y-82622496D02*
X142488866Y-82574877D01*
X142488866Y-82574877D02*
X141869819Y-82574877D01*
X142203152Y-83670115D02*
X142203152Y-84051067D01*
X141869819Y-83812972D02*
X142726961Y-83812972D01*
X142726961Y-83812972D02*
X142822200Y-83860591D01*
X142822200Y-83860591D02*
X142869819Y-83955829D01*
X142869819Y-83955829D02*
X142869819Y-84051067D01*
X142869819Y-84384401D02*
X141869819Y-84384401D01*
X142869819Y-84812972D02*
X142346009Y-84812972D01*
X142346009Y-84812972D02*
X142250771Y-84765353D01*
X142250771Y-84765353D02*
X142203152Y-84670115D01*
X142203152Y-84670115D02*
X142203152Y-84527258D01*
X142203152Y-84527258D02*
X142250771Y-84432020D01*
X142250771Y-84432020D02*
X142298390Y-84384401D01*
X142822200Y-85670115D02*
X142869819Y-85574877D01*
X142869819Y-85574877D02*
X142869819Y-85384401D01*
X142869819Y-85384401D02*
X142822200Y-85289163D01*
X142822200Y-85289163D02*
X142726961Y-85241544D01*
X142726961Y-85241544D02*
X142346009Y-85241544D01*
X142346009Y-85241544D02*
X142250771Y-85289163D01*
X142250771Y-85289163D02*
X142203152Y-85384401D01*
X142203152Y-85384401D02*
X142203152Y-85574877D01*
X142203152Y-85574877D02*
X142250771Y-85670115D01*
X142250771Y-85670115D02*
X142346009Y-85717734D01*
X142346009Y-85717734D02*
X142441247Y-85717734D01*
X142441247Y-85717734D02*
X142536485Y-85241544D01*
X142869819Y-86908211D02*
X141869819Y-86908211D01*
X142250771Y-86908211D02*
X142203152Y-87003449D01*
X142203152Y-87003449D02*
X142203152Y-87193925D01*
X142203152Y-87193925D02*
X142250771Y-87289163D01*
X142250771Y-87289163D02*
X142298390Y-87336782D01*
X142298390Y-87336782D02*
X142393628Y-87384401D01*
X142393628Y-87384401D02*
X142679342Y-87384401D01*
X142679342Y-87384401D02*
X142774580Y-87336782D01*
X142774580Y-87336782D02*
X142822200Y-87289163D01*
X142822200Y-87289163D02*
X142869819Y-87193925D01*
X142869819Y-87193925D02*
X142869819Y-87003449D01*
X142869819Y-87003449D02*
X142822200Y-86908211D01*
X142822200Y-88193925D02*
X142869819Y-88098687D01*
X142869819Y-88098687D02*
X142869819Y-87908211D01*
X142869819Y-87908211D02*
X142822200Y-87812973D01*
X142822200Y-87812973D02*
X142726961Y-87765354D01*
X142726961Y-87765354D02*
X142346009Y-87765354D01*
X142346009Y-87765354D02*
X142250771Y-87812973D01*
X142250771Y-87812973D02*
X142203152Y-87908211D01*
X142203152Y-87908211D02*
X142203152Y-88098687D01*
X142203152Y-88098687D02*
X142250771Y-88193925D01*
X142250771Y-88193925D02*
X142346009Y-88241544D01*
X142346009Y-88241544D02*
X142441247Y-88241544D01*
X142441247Y-88241544D02*
X142536485Y-87765354D01*
X142822200Y-89051068D02*
X142869819Y-88955830D01*
X142869819Y-88955830D02*
X142869819Y-88765354D01*
X142869819Y-88765354D02*
X142822200Y-88670116D01*
X142822200Y-88670116D02*
X142726961Y-88622497D01*
X142726961Y-88622497D02*
X142346009Y-88622497D01*
X142346009Y-88622497D02*
X142250771Y-88670116D01*
X142250771Y-88670116D02*
X142203152Y-88765354D01*
X142203152Y-88765354D02*
X142203152Y-88955830D01*
X142203152Y-88955830D02*
X142250771Y-89051068D01*
X142250771Y-89051068D02*
X142346009Y-89098687D01*
X142346009Y-89098687D02*
X142441247Y-89098687D01*
X142441247Y-89098687D02*
X142536485Y-88622497D01*
X142203152Y-89527259D02*
X143203152Y-89527259D01*
X142250771Y-89527259D02*
X142203152Y-89622497D01*
X142203152Y-89622497D02*
X142203152Y-89812973D01*
X142203152Y-89812973D02*
X142250771Y-89908211D01*
X142250771Y-89908211D02*
X142298390Y-89955830D01*
X142298390Y-89955830D02*
X142393628Y-90003449D01*
X142393628Y-90003449D02*
X142679342Y-90003449D01*
X142679342Y-90003449D02*
X142774580Y-89955830D01*
X142774580Y-89955830D02*
X142822200Y-89908211D01*
X142822200Y-89908211D02*
X142869819Y-89812973D01*
X142869819Y-89812973D02*
X142869819Y-89622497D01*
X142869819Y-89622497D02*
X142822200Y-89527259D01*
X142488866Y-90432021D02*
X142488866Y-91193926D01*
X142869819Y-91670116D02*
X141869819Y-91670116D01*
X142250771Y-91670116D02*
X142203152Y-91765354D01*
X142203152Y-91765354D02*
X142203152Y-91955830D01*
X142203152Y-91955830D02*
X142250771Y-92051068D01*
X142250771Y-92051068D02*
X142298390Y-92098687D01*
X142298390Y-92098687D02*
X142393628Y-92146306D01*
X142393628Y-92146306D02*
X142679342Y-92146306D01*
X142679342Y-92146306D02*
X142774580Y-92098687D01*
X142774580Y-92098687D02*
X142822200Y-92051068D01*
X142822200Y-92051068D02*
X142869819Y-91955830D01*
X142869819Y-91955830D02*
X142869819Y-91765354D01*
X142869819Y-91765354D02*
X142822200Y-91670116D01*
X142869819Y-92717735D02*
X142822200Y-92622497D01*
X142822200Y-92622497D02*
X142774580Y-92574878D01*
X142774580Y-92574878D02*
X142679342Y-92527259D01*
X142679342Y-92527259D02*
X142393628Y-92527259D01*
X142393628Y-92527259D02*
X142298390Y-92574878D01*
X142298390Y-92574878D02*
X142250771Y-92622497D01*
X142250771Y-92622497D02*
X142203152Y-92717735D01*
X142203152Y-92717735D02*
X142203152Y-92860592D01*
X142203152Y-92860592D02*
X142250771Y-92955830D01*
X142250771Y-92955830D02*
X142298390Y-93003449D01*
X142298390Y-93003449D02*
X142393628Y-93051068D01*
X142393628Y-93051068D02*
X142679342Y-93051068D01*
X142679342Y-93051068D02*
X142774580Y-93003449D01*
X142774580Y-93003449D02*
X142822200Y-92955830D01*
X142822200Y-92955830D02*
X142869819Y-92860592D01*
X142869819Y-92860592D02*
X142869819Y-92717735D01*
X142869819Y-93622497D02*
X142822200Y-93527259D01*
X142822200Y-93527259D02*
X142774580Y-93479640D01*
X142774580Y-93479640D02*
X142679342Y-93432021D01*
X142679342Y-93432021D02*
X142393628Y-93432021D01*
X142393628Y-93432021D02*
X142298390Y-93479640D01*
X142298390Y-93479640D02*
X142250771Y-93527259D01*
X142250771Y-93527259D02*
X142203152Y-93622497D01*
X142203152Y-93622497D02*
X142203152Y-93765354D01*
X142203152Y-93765354D02*
X142250771Y-93860592D01*
X142250771Y-93860592D02*
X142298390Y-93908211D01*
X142298390Y-93908211D02*
X142393628Y-93955830D01*
X142393628Y-93955830D02*
X142679342Y-93955830D01*
X142679342Y-93955830D02*
X142774580Y-93908211D01*
X142774580Y-93908211D02*
X142822200Y-93860592D01*
X142822200Y-93860592D02*
X142869819Y-93765354D01*
X142869819Y-93765354D02*
X142869819Y-93622497D01*
X142203152Y-94384402D02*
X143203152Y-94384402D01*
X142250771Y-94384402D02*
X142203152Y-94479640D01*
X142203152Y-94479640D02*
X142203152Y-94670116D01*
X142203152Y-94670116D02*
X142250771Y-94765354D01*
X142250771Y-94765354D02*
X142298390Y-94812973D01*
X142298390Y-94812973D02*
X142393628Y-94860592D01*
X142393628Y-94860592D02*
X142679342Y-94860592D01*
X142679342Y-94860592D02*
X142774580Y-94812973D01*
X142774580Y-94812973D02*
X142822200Y-94765354D01*
X142822200Y-94765354D02*
X142869819Y-94670116D01*
X142869819Y-94670116D02*
X142869819Y-94479640D01*
X142869819Y-94479640D02*
X142822200Y-94384402D01*
X142869819Y-96051069D02*
X141869819Y-96051069D01*
X142250771Y-96051069D02*
X142203152Y-96146307D01*
X142203152Y-96146307D02*
X142203152Y-96336783D01*
X142203152Y-96336783D02*
X142250771Y-96432021D01*
X142250771Y-96432021D02*
X142298390Y-96479640D01*
X142298390Y-96479640D02*
X142393628Y-96527259D01*
X142393628Y-96527259D02*
X142679342Y-96527259D01*
X142679342Y-96527259D02*
X142774580Y-96479640D01*
X142774580Y-96479640D02*
X142822200Y-96432021D01*
X142822200Y-96432021D02*
X142869819Y-96336783D01*
X142869819Y-96336783D02*
X142869819Y-96146307D01*
X142869819Y-96146307D02*
X142822200Y-96051069D01*
X142869819Y-96955831D02*
X142203152Y-96955831D01*
X141869819Y-96955831D02*
X141917438Y-96908212D01*
X141917438Y-96908212D02*
X141965057Y-96955831D01*
X141965057Y-96955831D02*
X141917438Y-97003450D01*
X141917438Y-97003450D02*
X141869819Y-96955831D01*
X141869819Y-96955831D02*
X141965057Y-96955831D01*
X142203152Y-97289164D02*
X142203152Y-97670116D01*
X141869819Y-97432021D02*
X142726961Y-97432021D01*
X142726961Y-97432021D02*
X142822200Y-97479640D01*
X142822200Y-97479640D02*
X142869819Y-97574878D01*
X142869819Y-97574878D02*
X142869819Y-97670116D01*
X142822200Y-97955831D02*
X142869819Y-98051069D01*
X142869819Y-98051069D02*
X142869819Y-98241545D01*
X142869819Y-98241545D02*
X142822200Y-98336783D01*
X142822200Y-98336783D02*
X142726961Y-98384402D01*
X142726961Y-98384402D02*
X142679342Y-98384402D01*
X142679342Y-98384402D02*
X142584104Y-98336783D01*
X142584104Y-98336783D02*
X142536485Y-98241545D01*
X142536485Y-98241545D02*
X142536485Y-98098688D01*
X142536485Y-98098688D02*
X142488866Y-98003450D01*
X142488866Y-98003450D02*
X142393628Y-97955831D01*
X142393628Y-97955831D02*
X142346009Y-97955831D01*
X142346009Y-97955831D02*
X142250771Y-98003450D01*
X142250771Y-98003450D02*
X142203152Y-98098688D01*
X142203152Y-98098688D02*
X142203152Y-98241545D01*
X142203152Y-98241545D02*
X142250771Y-98336783D01*
X142869819Y-100003450D02*
X142346009Y-100003450D01*
X142346009Y-100003450D02*
X142250771Y-99955831D01*
X142250771Y-99955831D02*
X142203152Y-99860593D01*
X142203152Y-99860593D02*
X142203152Y-99670117D01*
X142203152Y-99670117D02*
X142250771Y-99574879D01*
X142822200Y-100003450D02*
X142869819Y-99908212D01*
X142869819Y-99908212D02*
X142869819Y-99670117D01*
X142869819Y-99670117D02*
X142822200Y-99574879D01*
X142822200Y-99574879D02*
X142726961Y-99527260D01*
X142726961Y-99527260D02*
X142631723Y-99527260D01*
X142631723Y-99527260D02*
X142536485Y-99574879D01*
X142536485Y-99574879D02*
X142488866Y-99670117D01*
X142488866Y-99670117D02*
X142488866Y-99908212D01*
X142488866Y-99908212D02*
X142441247Y-100003450D01*
X142869819Y-100479641D02*
X142203152Y-100479641D01*
X142393628Y-100479641D02*
X142298390Y-100527260D01*
X142298390Y-100527260D02*
X142250771Y-100574879D01*
X142250771Y-100574879D02*
X142203152Y-100670117D01*
X142203152Y-100670117D02*
X142203152Y-100765355D01*
X142822200Y-101479641D02*
X142869819Y-101384403D01*
X142869819Y-101384403D02*
X142869819Y-101193927D01*
X142869819Y-101193927D02*
X142822200Y-101098689D01*
X142822200Y-101098689D02*
X142726961Y-101051070D01*
X142726961Y-101051070D02*
X142346009Y-101051070D01*
X142346009Y-101051070D02*
X142250771Y-101098689D01*
X142250771Y-101098689D02*
X142203152Y-101193927D01*
X142203152Y-101193927D02*
X142203152Y-101384403D01*
X142203152Y-101384403D02*
X142250771Y-101479641D01*
X142250771Y-101479641D02*
X142346009Y-101527260D01*
X142346009Y-101527260D02*
X142441247Y-101527260D01*
X142441247Y-101527260D02*
X142536485Y-101051070D01*
X142869819Y-102860594D02*
X142822200Y-102765356D01*
X142822200Y-102765356D02*
X142774580Y-102717737D01*
X142774580Y-102717737D02*
X142679342Y-102670118D01*
X142679342Y-102670118D02*
X142393628Y-102670118D01*
X142393628Y-102670118D02*
X142298390Y-102717737D01*
X142298390Y-102717737D02*
X142250771Y-102765356D01*
X142250771Y-102765356D02*
X142203152Y-102860594D01*
X142203152Y-102860594D02*
X142203152Y-103003451D01*
X142203152Y-103003451D02*
X142250771Y-103098689D01*
X142250771Y-103098689D02*
X142298390Y-103146308D01*
X142298390Y-103146308D02*
X142393628Y-103193927D01*
X142393628Y-103193927D02*
X142679342Y-103193927D01*
X142679342Y-103193927D02*
X142774580Y-103146308D01*
X142774580Y-103146308D02*
X142822200Y-103098689D01*
X142822200Y-103098689D02*
X142869819Y-103003451D01*
X142869819Y-103003451D02*
X142869819Y-102860594D01*
X142203152Y-103622499D02*
X142869819Y-103622499D01*
X142298390Y-103622499D02*
X142250771Y-103670118D01*
X142250771Y-103670118D02*
X142203152Y-103765356D01*
X142203152Y-103765356D02*
X142203152Y-103908213D01*
X142203152Y-103908213D02*
X142250771Y-104003451D01*
X142250771Y-104003451D02*
X142346009Y-104051070D01*
X142346009Y-104051070D02*
X142869819Y-104051070D01*
X142203152Y-105146309D02*
X142203152Y-105527261D01*
X141869819Y-105289166D02*
X142726961Y-105289166D01*
X142726961Y-105289166D02*
X142822200Y-105336785D01*
X142822200Y-105336785D02*
X142869819Y-105432023D01*
X142869819Y-105432023D02*
X142869819Y-105527261D01*
X142869819Y-105860595D02*
X141869819Y-105860595D01*
X142869819Y-106289166D02*
X142346009Y-106289166D01*
X142346009Y-106289166D02*
X142250771Y-106241547D01*
X142250771Y-106241547D02*
X142203152Y-106146309D01*
X142203152Y-106146309D02*
X142203152Y-106003452D01*
X142203152Y-106003452D02*
X142250771Y-105908214D01*
X142250771Y-105908214D02*
X142298390Y-105860595D01*
X142822200Y-107146309D02*
X142869819Y-107051071D01*
X142869819Y-107051071D02*
X142869819Y-106860595D01*
X142869819Y-106860595D02*
X142822200Y-106765357D01*
X142822200Y-106765357D02*
X142726961Y-106717738D01*
X142726961Y-106717738D02*
X142346009Y-106717738D01*
X142346009Y-106717738D02*
X142250771Y-106765357D01*
X142250771Y-106765357D02*
X142203152Y-106860595D01*
X142203152Y-106860595D02*
X142203152Y-107051071D01*
X142203152Y-107051071D02*
X142250771Y-107146309D01*
X142250771Y-107146309D02*
X142346009Y-107193928D01*
X142346009Y-107193928D02*
X142441247Y-107193928D01*
X142441247Y-107193928D02*
X142536485Y-106717738D01*
X142869819Y-108527262D02*
X142822200Y-108432024D01*
X142822200Y-108432024D02*
X142774580Y-108384405D01*
X142774580Y-108384405D02*
X142679342Y-108336786D01*
X142679342Y-108336786D02*
X142393628Y-108336786D01*
X142393628Y-108336786D02*
X142298390Y-108384405D01*
X142298390Y-108384405D02*
X142250771Y-108432024D01*
X142250771Y-108432024D02*
X142203152Y-108527262D01*
X142203152Y-108527262D02*
X142203152Y-108670119D01*
X142203152Y-108670119D02*
X142250771Y-108765357D01*
X142250771Y-108765357D02*
X142298390Y-108812976D01*
X142298390Y-108812976D02*
X142393628Y-108860595D01*
X142393628Y-108860595D02*
X142679342Y-108860595D01*
X142679342Y-108860595D02*
X142774580Y-108812976D01*
X142774580Y-108812976D02*
X142822200Y-108765357D01*
X142822200Y-108765357D02*
X142869819Y-108670119D01*
X142869819Y-108670119D02*
X142869819Y-108527262D01*
X142203152Y-109146310D02*
X142203152Y-109527262D01*
X141869819Y-109289167D02*
X142726961Y-109289167D01*
X142726961Y-109289167D02*
X142822200Y-109336786D01*
X142822200Y-109336786D02*
X142869819Y-109432024D01*
X142869819Y-109432024D02*
X142869819Y-109527262D01*
X142869819Y-109860596D02*
X141869819Y-109860596D01*
X142869819Y-110289167D02*
X142346009Y-110289167D01*
X142346009Y-110289167D02*
X142250771Y-110241548D01*
X142250771Y-110241548D02*
X142203152Y-110146310D01*
X142203152Y-110146310D02*
X142203152Y-110003453D01*
X142203152Y-110003453D02*
X142250771Y-109908215D01*
X142250771Y-109908215D02*
X142298390Y-109860596D01*
X142822200Y-111146310D02*
X142869819Y-111051072D01*
X142869819Y-111051072D02*
X142869819Y-110860596D01*
X142869819Y-110860596D02*
X142822200Y-110765358D01*
X142822200Y-110765358D02*
X142726961Y-110717739D01*
X142726961Y-110717739D02*
X142346009Y-110717739D01*
X142346009Y-110717739D02*
X142250771Y-110765358D01*
X142250771Y-110765358D02*
X142203152Y-110860596D01*
X142203152Y-110860596D02*
X142203152Y-111051072D01*
X142203152Y-111051072D02*
X142250771Y-111146310D01*
X142250771Y-111146310D02*
X142346009Y-111193929D01*
X142346009Y-111193929D02*
X142441247Y-111193929D01*
X142441247Y-111193929D02*
X142536485Y-110717739D01*
X142869819Y-111622501D02*
X142203152Y-111622501D01*
X142393628Y-111622501D02*
X142298390Y-111670120D01*
X142298390Y-111670120D02*
X142250771Y-111717739D01*
X142250771Y-111717739D02*
X142203152Y-111812977D01*
X142203152Y-111812977D02*
X142203152Y-111908215D01*
X142822200Y-112955835D02*
X142869819Y-113051073D01*
X142869819Y-113051073D02*
X142869819Y-113241549D01*
X142869819Y-113241549D02*
X142822200Y-113336787D01*
X142822200Y-113336787D02*
X142726961Y-113384406D01*
X142726961Y-113384406D02*
X142679342Y-113384406D01*
X142679342Y-113384406D02*
X142584104Y-113336787D01*
X142584104Y-113336787D02*
X142536485Y-113241549D01*
X142536485Y-113241549D02*
X142536485Y-113098692D01*
X142536485Y-113098692D02*
X142488866Y-113003454D01*
X142488866Y-113003454D02*
X142393628Y-112955835D01*
X142393628Y-112955835D02*
X142346009Y-112955835D01*
X142346009Y-112955835D02*
X142250771Y-113003454D01*
X142250771Y-113003454D02*
X142203152Y-113098692D01*
X142203152Y-113098692D02*
X142203152Y-113241549D01*
X142203152Y-113241549D02*
X142250771Y-113336787D01*
X142869819Y-113812978D02*
X142203152Y-113812978D01*
X141869819Y-113812978D02*
X141917438Y-113765359D01*
X141917438Y-113765359D02*
X141965057Y-113812978D01*
X141965057Y-113812978D02*
X141917438Y-113860597D01*
X141917438Y-113860597D02*
X141869819Y-113812978D01*
X141869819Y-113812978D02*
X141965057Y-113812978D01*
X142869819Y-114717739D02*
X141869819Y-114717739D01*
X142822200Y-114717739D02*
X142869819Y-114622501D01*
X142869819Y-114622501D02*
X142869819Y-114432025D01*
X142869819Y-114432025D02*
X142822200Y-114336787D01*
X142822200Y-114336787D02*
X142774580Y-114289168D01*
X142774580Y-114289168D02*
X142679342Y-114241549D01*
X142679342Y-114241549D02*
X142393628Y-114241549D01*
X142393628Y-114241549D02*
X142298390Y-114289168D01*
X142298390Y-114289168D02*
X142250771Y-114336787D01*
X142250771Y-114336787D02*
X142203152Y-114432025D01*
X142203152Y-114432025D02*
X142203152Y-114622501D01*
X142203152Y-114622501D02*
X142250771Y-114717739D01*
X142822200Y-115574882D02*
X142869819Y-115479644D01*
X142869819Y-115479644D02*
X142869819Y-115289168D01*
X142869819Y-115289168D02*
X142822200Y-115193930D01*
X142822200Y-115193930D02*
X142726961Y-115146311D01*
X142726961Y-115146311D02*
X142346009Y-115146311D01*
X142346009Y-115146311D02*
X142250771Y-115193930D01*
X142250771Y-115193930D02*
X142203152Y-115289168D01*
X142203152Y-115289168D02*
X142203152Y-115479644D01*
X142203152Y-115479644D02*
X142250771Y-115574882D01*
X142250771Y-115574882D02*
X142346009Y-115622501D01*
X142346009Y-115622501D02*
X142441247Y-115622501D01*
X142441247Y-115622501D02*
X142536485Y-115146311D01*
X142774580Y-116051073D02*
X142822200Y-116098692D01*
X142822200Y-116098692D02*
X142869819Y-116051073D01*
X142869819Y-116051073D02*
X142822200Y-116003454D01*
X142822200Y-116003454D02*
X142774580Y-116051073D01*
X142774580Y-116051073D02*
X142869819Y-116051073D01*
M02*
